<?xml version="1.0" encoding="UTF-8"?>
<svg id="Calque_2" data-name="Calque 2" xmlns="http://www.w3.org/2000/svg" xmlns:xlink="http://www.w3.org/1999/xlink" viewBox="0 0 494.05 175.76">
  <defs>
    <style>
      .cls-1 {
        fill: url(#linear-gradient);
      }

      .cls-2 {
        fill: #f5ed63;
      }

      .cls-3 {
        fill: #1c1c1c;
      }

      .cls-4 {
        fill: #1c1b1a;
      }

      .cls-5 {
        fill: url(#linear-gradient-8);
      }

      .cls-6 {
        fill: url(#linear-gradient-9);
      }

      .cls-7 {
        fill: url(#linear-gradient-3);
      }

      .cls-8 {
        fill: url(#linear-gradient-4);
      }

      .cls-9 {
        fill: url(#linear-gradient-2);
      }

      .cls-10 {
        fill: url(#linear-gradient-6);
      }

      .cls-11 {
        fill: url(#linear-gradient-7);
      }

      .cls-12 {
        fill: url(#linear-gradient-5);
      }

      .cls-13 {
        fill: url(#linear-gradient-10);
      }

      .cls-14 {
        fill: url(#linear-gradient-11);
      }
    </style>
    <linearGradient id="linear-gradient" x1="378.77" y1="-38.13" x2="-7.97" y2="151.7" gradientUnits="userSpaceOnUse">
      <stop offset="0" stop-color="#ee3197"/>
      <stop offset=".09" stop-color="#fb36b8"/>
      <stop offset=".43" stop-color="#0269ff"/>
      <stop offset="1" stop-color="#43c6ff"/>
    </linearGradient>
    <linearGradient id="linear-gradient-2" x1="380.84" y1="-33.91" x2="-5.9" y2="155.92" xlink:href="#linear-gradient"/>
    <linearGradient id="linear-gradient-3" x1="388.7" y1="-17.91" x2="1.96" y2="171.93" xlink:href="#linear-gradient"/>
    <linearGradient id="linear-gradient-4" x1="374.96" y1="-45.89" x2="-11.78" y2="143.94" xlink:href="#linear-gradient"/>
    <linearGradient id="linear-gradient-5" x1="395.02" y1="-5.03" x2="8.28" y2="184.81" xlink:href="#linear-gradient"/>
    <linearGradient id="linear-gradient-6" x1="404.58" y1="14.46" x2="17.85" y2="204.3" xlink:href="#linear-gradient"/>
    <linearGradient id="linear-gradient-7" x1="410.25" y1="25.99" x2="23.51" y2="215.83" xlink:href="#linear-gradient"/>
    <linearGradient id="linear-gradient-8" x1="424.36" y1="54.75" x2="37.62" y2="244.59" xlink:href="#linear-gradient"/>
    <linearGradient id="linear-gradient-9" x1="429.9" y1="66.03" x2="43.16" y2="255.87" xlink:href="#linear-gradient"/>
    <linearGradient id="linear-gradient-10" x1="441.59" y1="89.85" x2="54.85" y2="279.69" xlink:href="#linear-gradient"/>
    <linearGradient id="linear-gradient-11" x1="352.77" y1="-91.11" x2="-33.97" y2="98.73" xlink:href="#linear-gradient"/>
  </defs>
  <g id="Elements">
    <g>
      <g>
        <g>
          <path class="cls-1" d="m148.88,91.61v-21.09c0-9.68-7.78-14.71-17.83-14.71-10.91,0-19.01,5.97-19.19,15.88h10.41c.18-4.62,3.67-6.97,8.6-6.97,4.62,0,7.42,2.08,7.42,5.79,0,4.71-4.25,5.16-11.31,6.47-10.23,1.85-16.61,5.57-16.61,14.25s6.11,12.99,14.39,12.99c6.6,0,11.94-2.99,15.05-7.62,1.01,4.17,3.94,7.04,9.2,7.04,2.17,0,4.07-.5,4.89-.86v-8.15c-.63.23-1.49.32-2.13.32-2.4,0-2.9-1.31-2.9-3.35Zm-10.59-2.45c-2.08,3.71-6.33,6.25-11.31,6.25-3.58,0-5.93-1.45-5.93-4.93,0-3.71,2.71-5.21,7.83-6.43,5.02-1.18,7.2-1.99,9.41-4.12v9.23Z"/>
          <rect class="cls-9" x="161.22" y="39.48" width="10.68" height="63.58"/>
          <rect class="cls-7" x="183.84" y="56.99" width="10.68" height="46.07"/>
          <rect class="cls-8" x="183.75" y="39.94" width="10.86" height="10.72"/>
          <path class="cls-12" d="m225.33,75.41c-6.97-1.63-11-1.99-11-6.02,0-2.85,2.31-4.93,6.92-4.93,4.12,0,7.33,1.99,7.42,6.43h10.36c-.27-10.14-7.19-15.07-17.6-15.07-9.73,0-17.65,4.25-17.65,14.07,0,9.01,7.42,11.95,15.48,13.71,5.43,1.18,10.82,1.67,10.82,6.56,0,3.44-3.35,5.43-7.69,5.43-5.34,0-9.01-2.58-9.1-7.83h-10.36c.23,10.23,7.51,16.47,19.14,16.47,9.82,0,18.55-4.7,18.55-15.02,0-8.82-7.06-11.85-15.3-13.8Z"/>
          <path class="cls-10" d="m271.82,55.82c-5.9,0-10.59,2.75-13.35,8.17v-6.99h-10.27v63.22h10.68v-23c2.5,3.95,6.8,7.02,12.72,7.02,10.54,0,18.87-9.41,18.87-24.35,0-14.03-7.42-24.07-18.64-24.07Zm-2.49,39.42c-6.47,0-10.45-6.2-10.45-14.98v-.63c0-8.78,3.85-14.8,10.45-14.8s10.41,5.88,10.41,15.03-3.85,15.39-10.41,15.39Z"/>
          <path class="cls-11" d="m321.88,55.82c-5.11,0-10.12,2.61-12.58,7.17v-23.51h-10.68v63.58h10.68v-26.7c0-7.51,3.58-11.54,9.01-11.54s8.46,3.53,8.46,10.86v27.38h10.63v-29.59c0-11.32-6.02-17.65-15.52-17.65Z"/>
          <path class="cls-5" d="m383.7,91.61v-21.09c0-9.68-7.78-14.71-17.83-14.71-10.91,0-19.01,5.97-19.19,15.88h10.41c.18-4.62,3.67-6.97,8.6-6.97,4.62,0,7.42,2.08,7.42,5.79,0,4.71-4.25,5.16-11.31,6.47-10.23,1.85-16.61,5.57-16.61,14.25s6.11,12.99,14.39,12.99c6.6,0,11.94-2.99,15.05-7.62,1.01,4.17,3.94,7.04,9.2,7.04,2.17,0,4.07-.5,4.89-.86v-8.15c-.63.23-1.49.32-2.13.32-2.4,0-2.9-1.31-2.9-3.35Zm-10.59-2.45c-2.08,3.71-6.33,6.25-11.31,6.25-3.58,0-5.93-1.45-5.93-4.93,0-3.71,2.72-5.21,7.83-6.43,5.02-1.18,7.2-1.99,9.41-4.12v9.23Z"/>
          <path class="cls-6" d="m406.27,64.41v-7.42h-10.23v46.07h10.68v-26.38c0-6.7,3.85-10.95,10.91-10.95,1.49,0,2.99.23,4.21.5v-9.82c-1.04-.32-2.53-.45-4.07-.45-5.2,0-9.18,2.85-11.49,8.46Z"/>
          <path class="cls-13" d="m478.89,55.82c-5.91,0-10.92,3.07-13.76,8.21-2.42-5.49-7.15-8.21-13.35-8.21-5.08,0-9.7,2.88-12.35,7.78v-6.6h-10.27v46.07h10.68v-26.79c0-7.2,3.35-11.45,8.55-11.45s7.92,3.48,7.92,10.86v27.38h10.63v-27.56c.32-7.28,3.98-10.68,8.51-10.68,5.25,0,7.97,3.44,7.97,10.64v27.6h10.63v-31c0-9.77-5.57-16.25-15.16-16.25Z"/>
        </g>
        <path class="cls-14" d="m91.64,75.37l-23.78-60.66c-2.25-5.75-6.62-10.28-12.28-12.76-5.66-2.47-11.95-2.59-17.7-.34-11.87,4.66-17.75,18.1-13.09,29.98l11.62,29.64c-3.54-2-7.62-3.15-11.97-3.15-6.53,0-12.67,2.54-17.28,7.16-4.62,4.62-7.16,10.75-7.16,17.28,0,13.48,10.96,24.44,24.44,24.44,10.86,0,20.08-7.12,23.25-16.94l.88,2.24c2.26,5.75,6.62,10.28,12.28,12.76,2.97,1.3,6.11,1.95,9.25,1.95,2.85,0,5.71-.54,8.45-1.61,11.87-4.66,17.75-18.1,13.09-29.98Zm-67.2,26.05c-10.42,0-18.91-8.48-18.91-18.91,0-5.05,1.97-9.8,5.54-13.37,3.57-3.57,8.32-5.54,13.37-5.54,10.42,0,18.9,8.48,18.91,18.91,0,10.43-8.48,18.91-18.91,18.91Zm52.09-1.23c-4.37,1.72-9.16,1.63-13.47-.26-4.31-1.88-7.62-5.33-9.34-9.71L29.94,29.56c-3.54-9.03.93-19.26,9.96-22.8,4.38-1.72,9.16-1.62,13.47.26,4.31,1.88,7.62,5.33,9.34,9.71l23.78,60.66c3.54,9.03-.93,19.26-9.96,22.8Z"/>
      </g>
      <g>
        <g>
          <circle class="cls-2" cx="428.66" cy="151.76" r="24"/>
          <g>
            <path class="cls-4" d="m466.98,138.01h6.55l1.62,11.01h.55l2.26-11.01h5.08l2.28,11.01h.55l1.6-11.01h6.57l-3.31,17.92h-8.72l-1.24-7.72h-.55l-1.24,7.72h-8.7l-3.31-17.92Z"/>
            <path class="cls-4" d="m415.3,146.97c0-5.81,4.05-9.6,10.2-9.6,4.52,0,9.19,1.99,9.68,8.33h-6.17c-.41-1.86-1.67-2.74-3.51-2.74-2.08,0-3.77,1.52-3.77,4.01s1.69,4.01,3.77,4.01c1.84,0,3.11-.88,3.51-2.79h6.17c-.49,6.38-5.1,8.38-9.68,8.38-6.15,0-10.2-3.79-10.2-9.6Z"/>
            <path class="cls-4" d="m452.66,150.77c0,2.96-2.01,5.16-7.74,5.16h-11.18v-17.92h11.6c5.5,0,6.87,2.45,6.87,4.74s-1.02,2.9-2.24,3.63v.38c1.9.79,2.69,2.05,2.69,4.01Zm-12.48-7.67v2.18h4.37c1.3,0,1.49-.85,1.49-1.07,0-.38-.19-1.11-1.49-1.11h-4.37Zm5.95,6.87c0-.38-.21-1.15-1.49-1.15h-4.46v2.35h4.46c1.28,0,1.49-.87,1.49-1.19Z"/>
            <path class="cls-4" d="m469.55,143.38h-6.36v12.54h-6.46v-12.54h-6.34v-5.38h19.15v5.38Z"/>
          </g>
        </g>
        <g>
          <path class="cls-3" d="m379.37,151.33c0,1.64-.57,2.92-1.7,3.85-1.13.93-2.68,1.39-4.65,1.39h-6.97v-17.82h6.7c1.87,0,3.35.41,4.43,1.23s1.63,1.99,1.63,3.51c0,.81-.22,1.54-.66,2.18s-1.05,1.18-1.85,1.59c.99.35,1.75.86,2.28,1.55.53.69.79,1.53.79,2.52Zm-6.92-9.6h-2.98v4.14h2.98c.93,0,1.62-.19,2.09-.56.46-.37.69-.88.69-1.53s-.23-1.13-.69-1.5c-.46-.37-1.16-.56-2.09-.56Zm.27,7.15h-3.25v4.72h3.25c1.02,0,1.8-.22,2.32-.65.52-.43.78-1.02.78-1.76s-.26-1.27-.78-1.69c-.52-.41-1.29-.62-2.32-.62Z"/>
          <path class="cls-3" d="m393.49,143.32l-6.45,18.04h-3.75l1.89-4.94-5.21-13.1h3.72l3.33,9.08,3.03-9.08h3.45Z"/>
        </g>
      </g>
    </g>
  </g>
</svg>