<!--?xml version="1.0" encoding="UTF-8" standalone="no"?--><svg sodipodi:docname="Dattico logo.svg" viewBox="0 0 964.73091 953.80722" height="953.80725" width="964.7309" xml:space="preserve" inkscape:version="1.1 (c4e8f9e, 2021-05-24)" version="1.1" id="svg3390" xmlns:inkscape="http://www.inkscape.org/namespaces/inkscape" xmlns:sodipodi="http://sodipodi.sourceforge.net/DTD/sodipodi-0.dtd" xmlns:xlink="http://www.w3.org/1999/xlink" xmlns="http://www.w3.org/2000/svg" xmlns:svg="http://www.w3.org/2000/svg" xmlns:rdf="http://www.w3.org/1999/02/22-rdf-syntax-ns#" xmlns:cc="http://creativecommons.org/ns#" xmlns:dc="http://purl.org/dc/elements/1.1/"><metadata id="metadata3396"><rdf:rdf><cc:work rdf:about=""><dc:format>image/svg+xml</dc:format><dc:type rdf:resource="http://purl.org/dc/dcmitype/StillImage"></dc:type></cc:work></rdf:rdf></metadata><defs id="defs3394"><color-profile xlink:href="file:///System/Library/ColorSync/Profiles/Generic%20CMYK%20Profile.icc" name="Generic-CMYK-Profile" id="color-profile1045"></color-profile><clipPath id="clipPath3404" clipPathUnits="userSpaceOnUse"><path inkscape:connector-curvature="0" id="path3406" d="M 0,2321.89 H 4907.28 V 0 H 0 Z"></path></clipPath></defs><sodipodi:namedview inkscape:document-rotation="0" inkscape:snap-page="true" inkscape:current-layer="g3398" inkscape:window-maximized="0" inkscape:window-y="43" inkscape:window-x="58" inkscape:cy="591.35506" inkscape:cx="539.28606" inkscape:zoom="0.403311" fit-margin-bottom="100" fit-margin-right="100" fit-margin-left="100" fit-margin-top="100" showgrid="false" id="namedview3392" inkscape:window-height="1041" inkscape:window-width="1710" inkscape:pageshadow="2" inkscape:pageopacity="0" guidetolerance="10" gridtolerance="10" objecttolerance="10" borderopacity="1" bordercolor="#666666" pagecolor="#ffffff" inkscape:pagecheckerboard="0"></sodipodi:namedview><g transform="matrix(1.25,0,0,-1.25,-2605.5987,1228.8489)" inkscape:label="final logo" inkscape:groupmode="layer" id="g3398"><g transform="translate(2406.5904,774.28441)" id="g3554"><path inkscape:connector-curvature="0" id="path3556" style="fill:#a7a9ac;fill-opacity:1;fill-rule:nonzero;stroke:none" d="m 0,0 c -24.592,-2.9 -44.486,8.76 -53.279,27.108 v -168.913 l 26.583,-3.916 49.897,3.408 V 7.666 C 16.377,3.773 8.6,1.014 0,0"></path></g><g transform="translate(2406.5904,774.28441)" id="g3558"><path inkscape:connector-curvature="0" id="path3560" style="fill:none;stroke:#939598;stroke-width:1;stroke-linecap:butt;stroke-linejoin:miter;stroke-miterlimit:10;stroke-dasharray:none;stroke-opacity:1" d="m 0,0 c -24.592,-2.9 -44.486,8.76 -53.279,27.108 v -168.913 l 26.583,-3.916 49.897,3.408 V 7.666 C 16.377,3.773 8.6,1.014 0,0 Z"></path></g><g transform="translate(2288.6178,818.71111)" id="g3562"><path inkscape:connector-curvature="0" id="path3564" style="fill:#a7a9ac;fill-opacity:1;fill-rule:nonzero;stroke:none" d="m 0,0 v -188.59 l 14.604,-8.047 50.089,5.556 V -2.994 L 21.906,8.549 Z"></path></g><g transform="translate(2429.7916,782.19351)" id="g3566"><path inkscape:connector-curvature="0" id="path3568" style="fill:#1f1345;fill-opacity:1;fill-rule:nonzero;stroke:none" d="m 0,0 v -149.307 l 40.161,-11.566 43.813,10.058 V 0.057 L 41.987,13.132 Z"></path></g><g transform="translate(2513.7652,873.27661)" id="g3570"><path inkscape:connector-curvature="0" id="path3572" style="fill:#662c91;fill-opacity:1;fill-rule:nonzero;stroke:none" d="m 0,0 v -258.997 l 29.208,-9.052 48.681,7.04 V 0 L 31.643,16.093 Z"></path></g><g transform="translate(2591.6539,826.50601)" id="g3574"><path inkscape:connector-curvature="0" id="path3576" style="fill:#a7a9ac;fill-opacity:1;fill-rule:nonzero;stroke:none" d="m 0,0 v -205.186 l 36.511,-3.52 35.293,3.52 V -2.012 L 30.426,5.029 Z"></path></g><g transform="translate(2313.8072,902.21011)" id="g3578"><path inkscape:connector-curvature="0" id="path3580" style="fill:#a7a9ac;fill-opacity:1;fill-rule:nonzero;stroke:none" d="M 0,0 C 14.893,-2.173 25.203,-16.007 23.03,-30.899 20.857,-45.791 7.023,-56.103 -7.868,-53.93 c -14.893,2.173 -25.204,16.007 -23.031,30.9 C -28.727,-8.138 -14.893,2.173 0,0"></path></g><g transform="translate(2313.8072,902.21011)" id="g3582"><path inkscape:connector-curvature="0" id="path3584" style="fill:none;stroke:#939598;stroke-width:1;stroke-linecap:butt;stroke-linejoin:miter;stroke-miterlimit:10;stroke-dasharray:none;stroke-opacity:1" d="M 0,0 C 14.893,-2.173 25.203,-16.007 23.03,-30.899 20.857,-45.791 7.023,-56.103 -7.868,-53.93 c -14.893,2.173 -25.204,16.007 -23.031,30.9 C -28.727,-8.138 -14.893,2.173 0,0 Z"></path></g><g transform="translate(2360.3883,887.21111)" id="g3586"><path inkscape:connector-curvature="0" id="path3588" style="fill:#1f1345;fill-opacity:1;fill-rule:nonzero;stroke:none" d="m 0,0 c 0,8.764 7.104,15.868 15.868,15.868 8.764,0 15.868,-7.104 15.868,-15.868 0,-8.764 -7.104,-15.867 -15.868,-15.867 C 7.104,-15.867 0,-8.764 0,0"></path></g><g transform="translate(2375.1022,835.66621)" id="g3590"><path inkscape:connector-curvature="0" id="path3592" style="fill:#1f1345;fill-opacity:1;fill-rule:nonzero;stroke:none" d="M 0,0 C 5.165,11.187 18.421,16.068 29.607,10.902 40.794,5.737 45.676,-7.519 40.51,-18.705 35.345,-29.892 22.089,-34.773 10.902,-29.608 -0.284,-24.442 -5.166,-11.187 0,0"></path></g><g transform="translate(2266.5621,606.80491)" id="g3594"><path inkscape:connector-curvature="0" id="path3596" style="fill:#662c91;fill-opacity:1;fill-rule:nonzero;stroke:none" d="m 0,0 c -21.757,5.363 -62.484,27.268 -28.898,43.837 13.287,6.555 1.353,18.105 -9.952,12.528 -45.683,-22.537 -29.618,-55.165 15.77,-68.564 49.934,-14.742 93.474,-30.022 140.587,-44.333 23.754,-7.216 70.278,-18.521 72.859,-46.363 0.893,-9.626 23.116,-4.645 22.177,5.491 -2.641,28.488 -44.856,42.717 -68.909,50.819"></path></g><g transform="translate(2687.1334,678.09201)" id="g3598"><path inkscape:connector-curvature="0" id="path3600" style="fill:#662c91;fill-opacity:1;fill-rule:nonzero;stroke:none" d="m 0,0 c 33.232,-28.98 51.607,-74.974 21.824,-114.712 -15.001,-20.015 -36.546,-31.309 -54.707,-47.496 -7.672,-6.839 -10.632,-9.318 -8.098,-20.172 1.356,-5.812 22.755,1.847 21.044,9.18 -2.872,12.302 28.759,28.438 37.061,35.676 16.481,14.369 33.947,31.899 39.547,53.817 C 66.2,-46.408 45.945,-12.053 19.26,11.219 14.223,15.611 -5.575,4.862 0,0"></path></g><g transform="translate(2166.7926,638.68091)" id="g3602"><path inkscape:connector-curvature="0" id="path3604" style="fill:#a7a9ac;fill-opacity:1;fill-rule:nonzero;stroke:none" d="m 0,0 c -11.724,-49.086 35.767,-60.604 72.911,-75.205 22.768,-8.949 151.526,-38.604 152.213,-60.636 0.254,-8.141 15.259,-6.245 15.035,0.914 -1.013,32.531 -55.21,36.135 -79.188,44.362 C 122.73,-77.445 2.376,-52.088 15.035,0.913 16.848,8.504 1.67,6.991 0,0"></path></g><g transform="translate(2166.7926,638.68091)" id="g3606"><path inkscape:connector-curvature="0" id="path3608" style="fill:none;stroke:#939598;stroke-width:1;stroke-linecap:butt;stroke-linejoin:miter;stroke-miterlimit:10;stroke-dasharray:none;stroke-opacity:1" d="m 0,0 c -11.724,-49.086 35.767,-60.604 72.911,-75.205 22.768,-8.949 151.526,-38.604 152.213,-60.636 0.254,-8.141 15.259,-6.245 15.035,0.914 -1.013,32.531 -55.21,36.135 -79.188,44.362 C 122.73,-77.445 2.376,-52.088 15.035,0.913 16.848,8.504 1.67,6.991 0,0 Z"></path></g><g transform="translate(2717.4488,697.53241)" id="g3610"><path inkscape:connector-curvature="0" id="path3612" style="fill:#a7a9ac;fill-opacity:1;fill-rule:nonzero;stroke:none" d="m 0,0 c 16.078,-18.181 38.829,-40.304 43.129,-76.212 3.73,-31.151 -5.879,-37.981 -22.868,-61.198 -4.308,-5.888 10.673,-5.403 13.935,-0.945 17.343,23.699 29.325,46.398 21.864,76.627 C 49.479,-35.063 31.274,-13.82 13.641,6.119 9.783,10.48 -4.351,4.92 0,0"></path></g><g transform="translate(2717.4488,697.53241)" id="g3614"><path inkscape:connector-curvature="0" id="path3616" style="fill:none;stroke:#939598;stroke-width:1;stroke-linecap:butt;stroke-linejoin:miter;stroke-miterlimit:10;stroke-dasharray:none;stroke-opacity:1" d="m 0,0 c 16.078,-18.181 38.829,-40.304 43.129,-76.212 3.73,-31.151 -5.879,-37.981 -22.868,-61.198 -4.308,-5.888 10.673,-5.403 13.935,-0.945 17.343,23.699 29.325,46.398 21.864,76.627 C 49.479,-35.063 31.274,-13.82 13.641,6.119 9.783,10.48 -4.351,4.92 0,0 Z"></path></g><g transform="translate(2226.3229,316.78831)" id="g3618"><path inkscape:connector-curvature="0" id="path3620" style="fill:#1f174c;fill-opacity:1;fill-rule:nonzero;stroke:none" d="m 0,0 h 9.534 c 14.986,0 25.86,4.187 32.627,12.568 2.982,3.098 4.877,7.028 5.681,11.78 0.725,4.684 1.091,13.457 1.091,26.324 0,12.535 -0.366,21.506 -1.091,26.923 -0.967,5.407 -3.262,9.793 -6.885,13.157 -7.414,8.382 -17.889,12.436 -31.423,12.179 H 0 Z m -26.64,115.458 25.162,10.191 C 22.344,125.517 54.254,115.232 66.17,99.167 70.429,93.768 73.119,88.103 74.245,82.18 75.133,76.249 75.572,66.015 75.572,51.461 75.572,35.985 74.887,25.194 73.52,19.064 72.877,15.974 71.91,13.208 70.622,10.773 69.255,8.398 67.605,5.931 65.676,3.364 60.522,-3.414 53.678,-9.746 44.185,-13.424 36.34,-16.464 13.198,-15.942 0,-15.942 l -26.64,8.83 z"></path></g><g transform="translate(2381.6813,347.37811)" id="g3622"><path inkscape:connector-curvature="0" id="path3624" style="fill:#1f174c;fill-opacity:1;fill-rule:nonzero;stroke:none" d="m 0,0 h -28.344 c -13.762,-0.265 -20.562,-4.363 -20.405,-12.311 0,-3.477 1.773,-6.433 5.328,-8.867 3.402,-2.69 9.031,-4.04 16.892,-4.04 9.901,-0.133 16.891,0.886 20.974,3.055 C -1.852,-19.994 0,-15.067 0,-7.385 Z m 0,-34.267 h -0.454 c -2.185,-3.477 -5.578,-6.035 -10.179,-7.674 -4.527,-1.705 -10.786,-2.559 -18.78,-2.559 -13.124,0.133 -23.229,3.146 -30.316,9.058 -7.471,5.77 -11.203,13.155 -11.203,22.137 0,8.603 3.245,15.722 9.731,21.361 6.485,5.778 15.989,8.725 28.506,8.858 H 0 v 10.779 c 0.157,9.033 -7.879,13.42 -24.108,13.156 -5.884,0 -10.527,-0.522 -13.92,-1.581 -3.546,-1.25 -6.337,-3.362 -8.374,-6.326 l -18.563,12.311 c 8.972,10.184 22.201,15.143 39.694,14.886 14.777,0.124 26.576,-2.302 35.399,-7.285 8.818,-5.118 13.304,-13.917 13.457,-26.386 V -43.315 H 0 Z"></path></g><g transform="translate(2667.4332,319.00701)" id="g3626"><path inkscape:connector-curvature="0" id="path3628" style="fill:#1f174c;fill-opacity:1;fill-rule:nonzero;stroke:none" d="m 0,0 c -5.078,-5.037 -11.051,-9.141 -17.925,-12.303 -6.87,-3.293 -14.825,-5.005 -23.861,-5.135 -13.712,0 -25.752,4.054 -36.111,12.171 -10.736,8.118 -16.249,21.264 -16.547,39.448 0.298,18.372 5.816,31.682 16.56,39.923 10.368,8.117 22.418,12.106 36.144,11.983 9.027,-0.131 16.972,-1.753 23.838,-4.865 C -11.037,78.052 -5.069,73.809 0,68.492 L -17.247,55.183 c -5.899,6.838 -13.772,10.393 -23.627,10.656 -19.863,0.254 -29.943,-10.296 -30.241,-31.658 0.298,-21.24 10.378,-31.7 30.236,-31.371 9.856,0.13 17.733,3.644 23.627,10.549 z"></path></g><g transform="translate(2743.7184,352.94841)" id="g3630"><path inkscape:connector-curvature="0" id="path3632" style="fill:#1f174c;fill-opacity:1;fill-rule:nonzero;stroke:none" d="m 0,0 c 0,7.257 -0.372,12.555 -1.127,15.895 -0.75,3.209 -2.291,6.022 -4.623,8.441 -1.725,2.287 -4.282,4.089 -7.663,5.396 -3.233,1.374 -6.992,2.066 -11.274,2.066 -3.984,0 -7.665,-0.692 -11.045,-2.066 -3.234,-1.307 -5.861,-3.109 -7.889,-5.396 -2.033,-2.419 -3.496,-5.232 -4.398,-8.441 -0.901,-3.34 -1.352,-8.573 -1.352,-15.706 0,-7.066 0.451,-12.233 1.352,-15.507 0.902,-3.332 2.365,-6.278 4.398,-8.828 2.028,-1.966 4.655,-3.702 7.889,-5.208 3.38,-1.439 7.061,-2.155 11.045,-2.155 4.282,0 8.041,0.716 11.274,2.155 3.381,1.506 5.938,3.242 7.663,5.208 2.332,2.55 3.873,5.496 4.623,8.828 C -0.372,-12.044 0,-6.943 0,0 m -72.808,0.189 c 0,10.72 1.012,18.948 3.037,24.698 2.101,5.619 5.326,10.349 9.673,14.208 3.225,3.373 7.723,6.392 13.496,9.05 5.7,2.525 13.013,3.858 21.937,3.99 9.224,-0.132 16.685,-1.473 22.384,-4.015 5.621,-2.674 9.972,-5.71 13.045,-9.099 4.636,-3.842 7.922,-8.573 9.867,-14.183 1.872,-5.734 2.806,-13.953 2.806,-24.649 0,-10.695 -0.938,-18.839 -2.811,-24.45 -1.95,-5.611 -5.248,-10.465 -9.895,-14.578 -1.499,-1.497 -3.338,-2.962 -5.51,-4.401 -1.95,-1.629 -4.462,-3.028 -7.534,-4.204 -5.695,-2.806 -13.152,-4.27 -22.374,-4.402 -8.92,0.132 -16.225,1.596 -21.924,4.402 -5.773,2.542 -10.267,5.413 -13.492,8.605 -4.346,4.113 -7.571,8.967 -9.668,14.578 -2.025,5.611 -3.037,13.755 -3.037,24.45"></path></g><g transform="translate(2498.7721,332.51291)" id="g3634"><path inkscape:connector-curvature="0" id="path3636" style="fill:#1f174c;fill-opacity:1;fill-rule:nonzero;stroke:none" d="M 0,0 V 59.649 H 17.806 V 76.141 H 0 v 33.022 l -16.416,6.421 -8.208,-4.962 v -1.889 h -0.313 V 76.141 h -4.564 -7.844 -10.185 v 32.592 0.43 l -16.415,6.421 -8.208,-4.962 v -1.889 h -0.09 V 76.141 H -84.651 V 59.649 h 12.408 V -4.546 c 0,-8.45 2.842,-14.905 8.526,-19.372 5.526,-4.667 12.627,-7.001 21.314,-7.001 h 12.902 v 20.204 h -9.25 c -6.019,-0.138 -8.944,2.508 -8.779,7.946 V 0 59.649 h 10.185 7.844 4.564 V -4.546 c 0,-8.45 2.843,-14.905 8.527,-19.372 5.525,-4.667 12.627,-7.001 21.314,-7.001 h 12.902 v 20.204 H 8.557 c -6.02,-0.138 -8.945,2.508 -8.781,7.946 v 2.728 z"></path></g><g transform="translate(2544.7838,423.64371)" id="g3638"><path inkscape:connector-curvature="0" id="path3640" style="fill:#a7a9ac;fill-opacity:1;fill-rule:nonzero;stroke:none" d="M 0,0 C 8.032,0 14.544,5.823 14.544,13.007 14.544,20.19 8.032,26.014 0,26.014 -8.033,26.014 -14.545,20.19 -14.545,13.007 -14.545,5.823 -8.033,0 0,0"></path></g><g transform="translate(2533.2916,408.07831)" id="g3642"><path inkscape:connector-curvature="0" id="path3644" style="fill:#1f174c;fill-opacity:1;fill-rule:nonzero;stroke:none" d="m 0,0 v -103.623 l 5.786,-4.422 20.25,3.316 V -1.381 L 8.679,4.698 Z"></path></g><g transform="translate(2268.2584,366.69651)" id="g3646"><path inkscape:connector-curvature="0" id="path3648" style="fill:#662c91;fill-opacity:1;fill-rule:nonzero;stroke:none" d="M 0,0 V -0.863"></path></g></g></svg>
