<svg id="Groupe_768" data-name="Groupe 768" xmlns="http://www.w3.org/2000/svg" xmlns:xlink="http://www.w3.org/1999/xlink" width="370" height="71.218" viewBox="0 0 370 71.218">
  <defs>
    <clipPath id="clip-path">
      <rect id="Rectangle_367" data-name="Rectangle 367" width="370" height="71.218" fill="none"/>
    </clipPath>
  </defs>
  <g id="Groupe_767" data-name="Groupe 767" clip-path="url(#clip-path)">
    <path id="Tracé_17574" data-name="Tracé 17574" d="M550.974,264.233h-9.863v3.007H550.2c.291,0,.453.161.453.485v.388c0,.323-.162.485-.453.485h-9.087v2.846h9.863c.291,0,.453.162.453.485v.388c0,.323-.162.485-.453.485H540.206c-.291,0-.453-.162-.453-.485v-9.054c0-.323.162-.485.453-.485h10.768c.291,0,.453.162.453.485v.388c0,.42-.129.582-.453.582" transform="translate(-423.532 -206.196)" fill="#2ebad5"/>
    <path id="Tracé_17575" data-name="Tracé 17575" d="M618.031,262.96c.291,0,.453.162.453.485V272.5c0,.323-.161.485-.453.485h-.453a1.065,1.065,0,0,1-.711-.259l-9.378-7.955v7.7c0,.323-.162.485-.453.485h-.453c-.291,0-.453-.162-.453-.485v-9.054c0-.323.162-.485.453-.485h.453a1.007,1.007,0,0,1,.712.259l9.378,7.955v-7.7c0-.323.162-.485.453-.485Z" transform="translate(-475.617 -206.314)" fill="#2ebad5"/>
    <path id="Tracé_17576" data-name="Tracé 17576" d="M687.636,264.233h-9.863v3.007h9.087c.291,0,.453.161.453.485v.388c0,.323-.162.485-.453.485h-9.087v2.846h9.863c.291,0,.453.162.453.485v.388c0,.323-.162.485-.453.485H676.868c-.291,0-.453-.162-.453-.485v-9.054c0-.323.162-.485.453-.485h10.768c.291,0,.453.162.453.485v.388c0,.42-.162.582-.453.582" transform="translate(-530.768 -206.196)" fill="#2ebad5"/>
    <path id="Tracé_17577" data-name="Tracé 17577" d="M744.12,264.469v4.139h7.535a2.428,2.428,0,0,0,1.617-.517,2.068,2.068,0,0,0,.615-1.617c0-1.326-.744-2-2.2-2Zm11.059,8.052c.162.162.226.291.194.42s-.162.194-.388.194h-.711a.666.666,0,0,1-.55-.226l-3.1-3.007h-6.467v2.716c0,.323-.162.485-.453.485h-.453c-.291,0-.453-.162-.453-.485v-9.054c0-.323.162-.485.453-.485h8.44a4.637,4.637,0,0,1,1.714.291,2.494,2.494,0,0,1,1.132.808,3.19,3.19,0,0,1,.55,1.1,3.887,3.887,0,0,1,.162,1.229,4.337,4.337,0,0,1-.129,1.132,3.979,3.979,0,0,1-.453,1,2.759,2.759,0,0,1-.905.808,3.527,3.527,0,0,1-1.358.42Z" transform="translate(-582.854 -206.431)" fill="#2ebad5"/>
    <path id="Tracé_17578" data-name="Tracé 17578" d="M824.414,267.339v3.816a.471.471,0,0,1-.226.42,6.366,6.366,0,0,1-2.037.776,15.591,15.591,0,0,1-3.589.356,9.278,9.278,0,0,1-5.271-1.2,5.472,5.472,0,0,1,0-7.955,9.185,9.185,0,0,1,5.271-1.229,15.09,15.09,0,0,1,3.557.356,6.363,6.363,0,0,1,2.037.776.661.661,0,0,1,.226.323.621.621,0,0,1-.129.388l-.259.323a.447.447,0,0,1-.615.1,11.7,11.7,0,0,0-4.786-.905,7.852,7.852,0,0,0-4.333.905,3.989,3.989,0,0,0,0,5.821c.841.614,2.263.905,4.333.905a11.774,11.774,0,0,0,4.559-.776v-2.425h-3.331c-.291,0-.453-.162-.453-.485v-.291c0-.323.162-.485.453-.485h4.139c.291-.032.453.162.453.485" transform="translate(-636.825 -205.842)" fill="#2ebad5"/>
    <path id="Tracé_17579" data-name="Tracé 17579" d="M884.264,273.252c-.291,0-.453-.162-.453-.485v-9.054c0-.323.162-.485.453-.485h.453c.291,0,.453.162.453.485v9.054c0,.323-.162.485-.453.485Z" transform="translate(-693.507 -206.549)" fill="#2ebad5"/>
    <path id="Tracé_17580" data-name="Tracé 17580" d="M914.255,264.233h-9.863v3.007h9.087c.291,0,.453.161.453.485v.388c0,.323-.162.485-.453.485h-9.087v2.846h9.863c.291,0,.453.162.453.485v.388c0,.323-.162.485-.453.485H903.487c-.291,0-.453-.162-.453-.485v-9.054c0-.323.162-.485.453-.485h10.768c.291,0,.453.162.453.485v.388c0,.42-.162.582-.453.582" transform="translate(-708.591 -206.196)" fill="#2ebad5"/>
    <path id="Tracé_17581" data-name="Tracé 17581" d="M969.732,265.193a.773.773,0,0,0,.162.453,1.181,1.181,0,0,0,.485.355,4.587,4.587,0,0,0,.711.259,8.06,8.06,0,0,0,.938.226c.388.065.711.129,1.035.162.291.032.679.1,1.132.162.485.065.905.1,1.164.162.259.032.647.1,1.1.162a9.014,9.014,0,0,1,1.1.226,9.6,9.6,0,0,1,.938.291,3.742,3.742,0,0,1,.873.356,7.43,7.43,0,0,1,.615.453,1.579,1.579,0,0,1,.453.582,1.9,1.9,0,0,1,.13.744,2.426,2.426,0,0,1-1.552,2.328,11.563,11.563,0,0,1-4.689.711h-.162a14.887,14.887,0,0,1-3.589-.388,7.509,7.509,0,0,1-2.134-.776.5.5,0,0,1-.226-.323.512.512,0,0,1,.162-.388l.259-.291a.453.453,0,0,1,.615-.1,8.974,8.974,0,0,0,1.973.614,13.353,13.353,0,0,0,2.91.323h.161a11.238,11.238,0,0,0,3.622-.421c.776-.291,1.164-.679,1.164-1.132a1.009,1.009,0,0,0-.356-.711,2.521,2.521,0,0,0-1.067-.485,11.56,11.56,0,0,0-1.455-.291c-.485-.065-1.1-.162-1.811-.226h-.162c-.453-.065-.873-.1-1.229-.162s-.744-.129-1.2-.194c-.42-.1-.808-.194-1.132-.291a4.771,4.771,0,0,1-.938-.388,4.062,4.062,0,0,1-.776-.485,2.425,2.425,0,0,1-.485-.647,1.756,1.756,0,0,1-.194-.809,2.212,2.212,0,0,1,1.391-2.1,10.325,10.325,0,0,1,4.3-.679h.323a13.259,13.259,0,0,1,3.4.388,7.425,7.425,0,0,1,2.037.776.411.411,0,0,1,.065.711l-.259.291a.488.488,0,0,1-.647.1,10.823,10.823,0,0,0-4.624-.938h-.323c-2.749-.032-4.2.453-4.2,1.391" transform="translate(-759.734 -205.96)" fill="#2ebad5"/>
    <path id="Tracé_17582" data-name="Tracé 17582" d="M1165.231,265.193a.774.774,0,0,0,.162.453,1.184,1.184,0,0,0,.485.355,4.587,4.587,0,0,0,.711.259,8.066,8.066,0,0,0,.938.226c.388.065.712.129,1.035.162.291.032.679.1,1.132.162.485.065.906.1,1.164.162.259.032.647.1,1.1.162a9.022,9.022,0,0,1,1.1.226,9.6,9.6,0,0,1,.938.291,3.737,3.737,0,0,1,.873.356,7.431,7.431,0,0,1,.615.453,1.582,1.582,0,0,1,.453.582,1.9,1.9,0,0,1,.129.744,2.426,2.426,0,0,1-1.552,2.328,11.559,11.559,0,0,1-4.688.711h-.162a14.426,14.426,0,0,1-3.557-.388,7.508,7.508,0,0,1-2.134-.776.5.5,0,0,1-.226-.323.512.512,0,0,1,.162-.388l.259-.291a.453.453,0,0,1,.615-.1,8.973,8.973,0,0,0,1.972.614,13.356,13.356,0,0,0,2.911.323h.162a11.237,11.237,0,0,0,3.622-.421c.776-.291,1.164-.679,1.164-1.132a1.009,1.009,0,0,0-.355-.711,3.184,3.184,0,0,0-1.1-.485,11.56,11.56,0,0,0-1.455-.291c-.485-.065-1.1-.162-1.811-.226h-.162c-.453-.065-.873-.1-1.229-.162s-.744-.129-1.2-.194c-.421-.1-.809-.194-1.132-.291a4.769,4.769,0,0,1-.938-.388,4.049,4.049,0,0,1-.776-.485,2.422,2.422,0,0,1-.485-.647,1.75,1.75,0,0,1-.194-.809,2.211,2.211,0,0,1,1.391-2.1,10.323,10.323,0,0,1,4.3-.679h.323a13.26,13.26,0,0,1,3.4.388,8.234,8.234,0,0,1,2.07.776.411.411,0,0,1,.064.711l-.259.291a.488.488,0,0,1-.647.1,10.823,10.823,0,0,0-4.624-.938h-.323c-2.813-.032-4.236.453-4.236,1.391" transform="translate(-913.164 -205.96)" fill="#2ebad5"/>
    <path id="Tracé_17583" data-name="Tracé 17583" d="M1240.883,262.96a.391.391,0,0,1,.388.194.421.421,0,0,1-.162.42l-5.529,5.53v3.428c0,.323-.162.485-.453.485h-.453c-.291,0-.453-.162-.453-.485v-3.4l-5.53-5.562c-.162-.162-.226-.323-.162-.42q.049-.194.388-.194h.808a.778.778,0,0,1,.582.226l4.56,4.624,4.624-4.657a.779.779,0,0,1,.582-.226h.808Z" transform="translate(-963.981 -206.314)" fill="#2ebad5"/>
    <path id="Tracé_17584" data-name="Tracé 17584" d="M1310.654,262.96c.291,0,.453.162.453.485V272.5c0,.323-.162.485-.453.485h-.453a1.065,1.065,0,0,1-.711-.259l-9.378-7.955v7.7c0,.323-.162.485-.453.485h-.453c-.291,0-.453-.162-.453-.485v-9.054c0-.323.162-.485.453-.485h.453a1.006,1.006,0,0,1,.711.259l9.378,7.955v-7.7c0-.323.162-.485.453-.485Z" transform="translate(-1019.103 -206.314)" fill="#2ebad5"/>
    <path id="Tracé_17585" data-name="Tracé 17585" d="M1380.259,264.233H1370.4v3.007h9.087c.291,0,.453.161.453.485v.388c0,.323-.162.485-.453.485H1370.4v2.846h9.863c.291,0,.453.162.453.485v.388c0,.323-.162.485-.453.485h-10.768c-.291,0-.453-.162-.453-.485v-9.054c0-.323.161-.485.453-.485h10.768c.291,0,.453.162.453.485v.388c0,.42-.162.582-.453.582" transform="translate(-1074.254 -206.196)" fill="#2ebad5"/>
    <path id="Tracé_17586" data-name="Tracé 17586" d="M1436.743,264.469v4.139h7.535a2.231,2.231,0,0,0,1.584-.517,2.069,2.069,0,0,0,.615-1.617c0-1.326-.744-2-2.2-2Zm11.059,8.052c.162.162.226.291.194.42s-.162.194-.388.194h-.712a.666.666,0,0,1-.549-.226l-3.1-3.007h-6.468v2.716c0,.323-.161.485-.453.485h-.453c-.291,0-.453-.162-.453-.485v-9.054c0-.323.162-.485.453-.485h8.44a4.637,4.637,0,0,1,1.714.291,2.4,2.4,0,0,1,1.1.808,3.2,3.2,0,0,1,.55,1.1,3.9,3.9,0,0,1,.161,1.229,4.35,4.35,0,0,1-.129,1.132,3.993,3.993,0,0,1-.453,1,2.47,2.47,0,0,1-.905.808,3.528,3.528,0,0,1-1.358.42Z" transform="translate(-1126.339 -206.431)" fill="#2ebad5"/>
    <path id="Tracé_17587" data-name="Tracé 17587" d="M1517.036,267.339v3.816a.413.413,0,0,1-.226.42,6.365,6.365,0,0,1-2.037.776,15.59,15.59,0,0,1-3.589.356,9.277,9.277,0,0,1-5.271-1.2,5.472,5.472,0,0,1,0-7.955,9.256,9.256,0,0,1,5.271-1.229,15.591,15.591,0,0,1,3.589.356,6.363,6.363,0,0,1,2.037.776.659.659,0,0,1,.226.323.622.622,0,0,1-.129.388l-.259.323a.448.448,0,0,1-.615.1,11.588,11.588,0,0,0-4.786-.905,7.851,7.851,0,0,0-4.333.905,3.988,3.988,0,0,0,0,5.821,7.647,7.647,0,0,0,4.333.905,11.774,11.774,0,0,0,4.559-.776v-2.425h-3.33c-.291,0-.453-.162-.453-.485v-.291c0-.323.162-.485.453-.485h4.171c.259-.032.388.162.388.485" transform="translate(-1180.311 -205.842)" fill="#2ebad5"/>
    <path id="Tracé_17588" data-name="Tracé 17588" d="M1576.887,273.252c-.291,0-.453-.162-.453-.485v-9.054c0-.323.162-.485.453-.485h.453c.291,0,.453.162.453.485v9.054c0,.323-.162.485-.453.485Z" transform="translate(-1236.992 -206.549)" fill="#2ebad5"/>
    <path id="Tracé_17589" data-name="Tracé 17589" d="M1606.878,264.233h-9.863v3.007h9.087c.291,0,.452.161.452.485v.388c0,.323-.162.485-.452.485h-9.087v2.846h9.863c.291,0,.453.162.453.485v.388c0,.323-.162.485-.453.485H1596.11c-.291,0-.452-.162-.452-.485v-9.054c0-.323.162-.485.452-.485h10.768c.291,0,.453.162.453.485v.388c0,.42-.162.582-.453.582" transform="translate(-1252.076 -206.196)" fill="#2ebad5"/>
    <path id="Tracé_17590" data-name="Tracé 17590" d="M1662.472,265.193a.773.773,0,0,0,.162.453,1.182,1.182,0,0,0,.485.355,4.59,4.59,0,0,0,.711.259,8.066,8.066,0,0,0,.938.226c.388.065.711.129,1.035.162.291.032.679.1,1.164.162.517.065.906.1,1.164.162.291.032.647.1,1.1.162a10.567,10.567,0,0,1,1.1.226,9.593,9.593,0,0,1,.938.291,3.742,3.742,0,0,1,.873.356,7.43,7.43,0,0,1,.615.453,1.579,1.579,0,0,1,.453.582,1.893,1.893,0,0,1,.13.744,2.425,2.425,0,0,1-1.552,2.328,11.561,11.561,0,0,1-4.689.711h-.162a14.886,14.886,0,0,1-3.589-.388,7.509,7.509,0,0,1-2.134-.776.5.5,0,0,1-.226-.323.512.512,0,0,1,.162-.388l.291-.291a.453.453,0,0,1,.615-.1,8.97,8.97,0,0,0,1.973.614,13.428,13.428,0,0,0,2.943.323h.162a11.106,11.106,0,0,0,3.622-.421c.776-.291,1.164-.679,1.164-1.132a1.009,1.009,0,0,0-.356-.711,3.181,3.181,0,0,0-1.1-.485,11.566,11.566,0,0,0-1.455-.291c-.485-.065-1.1-.162-1.811-.226h-.162c-.453-.065-.873-.1-1.229-.162s-.744-.129-1.2-.194c-.421-.1-.809-.194-1.132-.291a5.735,5.735,0,0,1-.938-.388,4.052,4.052,0,0,1-.776-.485,2.425,2.425,0,0,1-.485-.647,1.756,1.756,0,0,1-.194-.809,2.212,2.212,0,0,1,1.39-2.1,10.325,10.325,0,0,1,4.3-.679h.323a13.257,13.257,0,0,1,3.4.388,8.229,8.229,0,0,1,2.07.776.411.411,0,0,1,.065.711l-.258.291a.5.5,0,0,1-.647.1,10.822,10.822,0,0,0-4.624-.938h-.323c-2.846-.032-4.3.453-4.3,1.391" transform="translate(-1303.338 -205.96)" fill="#2ebad5"/>
    <path id="Tracé_17591" data-name="Tracé 17591" d="M540.553,21.62a1.469,1.469,0,0,1,.366-1.055,1.155,1.155,0,0,1,.926-.431h21.425a9.714,9.714,0,0,1,4.371.99,11.6,11.6,0,0,1,3.531,2.67,13.674,13.674,0,0,1,2.39,3.94,12.755,12.755,0,0,1,.883,4.845,13.265,13.265,0,0,1-.883,4.845,12.894,12.894,0,0,1-2.39,3.9,11.216,11.216,0,0,1-3.531,2.627,9.715,9.715,0,0,1-4.371.99H551.384a1.187,1.187,0,0,1-.926-.388,1.475,1.475,0,0,1-.366-1.034V41.085a1.513,1.513,0,0,1,.366-1.034,1.187,1.187,0,0,1,.926-.388h11.024a6.1,6.1,0,0,0,2.605-.56,6.943,6.943,0,0,0,3.639-3.747,7.053,7.053,0,0,0,.538-2.8,6.771,6.771,0,0,0-.538-2.756,7.008,7.008,0,0,0-1.464-2.2,7.412,7.412,0,0,0-2.175-1.507,6.442,6.442,0,0,0-2.605-.56H546.044V59.344a1.431,1.431,0,0,1-.388,1.034,1.315,1.315,0,0,1-.969.388h-2.842a1.187,1.187,0,0,1-.926-.388,1.476,1.476,0,0,1-.366-1.034Z" transform="translate(-424.16 -15.799)" fill="#014970"/>
    <path id="Tracé_17592" data-name="Tracé 17592" d="M746.572,59.516c.086.323.151.5.151.56a.628.628,0,0,1-.711.711h-3.983a.929.929,0,0,1-.861-.624L737.119,50.8H720.044c-.323,0-.5-.172-.5-.56a1.04,1.04,0,0,1,.065-.388l1.572-3.467a1.08,1.08,0,0,1,1.077-.8h12.6l-8.677-20.714-15.5,35.291a.9.9,0,0,1-.861.624h-3.553a.628.628,0,0,1-.71-.711,3.06,3.06,0,0,1,.151-.56l16.86-37.9a2.848,2.848,0,0,1,.818-1.055,1.774,1.774,0,0,1,1.1-.431h3.338a1.728,1.728,0,0,1,1.1.431,2.978,2.978,0,0,1,.818,1.055Z" transform="translate(-553.632 -15.799)" fill="#014970"/>
    <path id="Tracé_17593" data-name="Tracé 17593" d="M949.575,21.62a1.47,1.47,0,0,1,.366-1.055,1.155,1.155,0,0,1,.926-.431H972.2a9.715,9.715,0,0,1,4.371.99,11.689,11.689,0,0,1,3.553,2.67,12.844,12.844,0,0,1,2.411,3.94,13.183,13.183,0,0,1,.883,4.845,13.356,13.356,0,0,1-.646,4.177,12.516,12.516,0,0,1-1.787,3.553,11.589,11.589,0,0,1-2.713,2.713,10.2,10.2,0,0,1-3.338,1.615l10.1,15.288a1.137,1.137,0,0,1,.151.56c0,.258-.151.388-.431.388H980.28a1.831,1.831,0,0,1-1.034-.366,3.212,3.212,0,0,1-.883-.9L968.7,45.025h-8.333a1.187,1.187,0,0,1-.926-.388,1.476,1.476,0,0,1-.366-1.034V41.171a1.451,1.451,0,0,1,.366-1.034,1.187,1.187,0,0,1,.926-.388h11.089a6.286,6.286,0,0,0,4.672-2.046,6.987,6.987,0,0,0,1.96-5.039,6.987,6.987,0,0,0-1.96-5.039,6.286,6.286,0,0,0-4.672-2.046H955.044V59.387a1.431,1.431,0,0,1-.388,1.034,1.314,1.314,0,0,1-.969.388h-2.842a1.187,1.187,0,0,1-.926-.388,1.476,1.476,0,0,1-.366-1.034Z" transform="translate(-745.093 -15.799)" fill="#014970"/>
    <path id="Tracé_17594" data-name="Tracé 17594" d="M1175.953,21.555a1.476,1.476,0,0,1,.388-.99,1.262,1.262,0,0,1,.947-.431h2.885a1.262,1.262,0,0,1,.948.431,1.477,1.477,0,0,1,.388.99V55.361h23.685a1.307,1.307,0,0,1,.969.431,1.52,1.52,0,0,1,.388,1.055V59.28a1.483,1.483,0,0,1-.388,1.055,1.274,1.274,0,0,1-.969.431h-27.906a1.262,1.262,0,0,1-.947-.431,1.519,1.519,0,0,1-.388-1.055Z" transform="translate(-922.744 -15.799)" fill="#014970"/>
    <path id="Tracé_17595" data-name="Tracé 17595" d="M1324.507,42.894V59.366c0,.947-.452,1.421-1.378,1.421h-2.821q-1.292,0-1.292-1.421V43.453a2.4,2.4,0,0,1,.215-1.034,4.747,4.747,0,0,1,.5-.861l14.427-20.8a1.181,1.181,0,0,1,.99-.624h4.759c.388,0,.56.151.56.474a2.58,2.58,0,0,1-.366.775Zm-21.274-21.511a1.111,1.111,0,0,1-.28-.775c0-.3.194-.474.581-.474h4.909a1.548,1.548,0,0,1,1.055.624l9.969,14.017a.619.619,0,0,1,.151.388.519.519,0,0,1-.151.388l-2.5,3.381a.51.51,0,0,1-.861,0Z" transform="translate(-1022.398 -15.799)" fill="#014970"/>
    <path id="Tracé_17596" data-name="Tracé 17596" d="M1564.76,34.388a2.384,2.384,0,0,1,.5-1.27l3.467-4.5c.344-.474.624-.711.861-.711.194,0,.28.151.28.474V59.344a1.431,1.431,0,0,1-.388,1.034,1.315,1.315,0,0,1-.969.388h-2.455a1.187,1.187,0,0,1-.926-.388,1.476,1.476,0,0,1-.366-1.034ZM1529.253,21.62a1.57,1.57,0,0,1,.366-1.055,1.185,1.185,0,0,1,.926-.431h2.175a1.836,1.836,0,0,1,1.378.624l15.417,20.09,15.051-20.09a1.433,1.433,0,0,1,1.077-.624h3.833c.323,0,.5.151.5.474a1.941,1.941,0,0,1-.366.8l-18.927,25.064a.938.938,0,0,1-.28.323,1.385,1.385,0,0,1-.861.323,1.514,1.514,0,0,1-.926-.323.753.753,0,0,1-.28-.323l-14.383-18.432V59.409a1.432,1.432,0,0,1-.388,1.034,1.35,1.35,0,0,1-.969.388h-2.024a1.187,1.187,0,0,1-.926-.388,1.475,1.475,0,0,1-.366-1.034Z" transform="translate(-1199.971 -15.799)" fill="#014970"/>
    <path id="Tracé_17597" data-name="Tracé 17597" d="M112.624,139.733c17.2-4.177,31.308,5.857,41.213,12.9,5.534,3.94,9.948,7.084,12.919,6.374a2.532,2.532,0,0,0,.431-.151c1.615-.646,2.756-2.648,3.424-6.094,1.486-6.094-.818-19.724-9.044-29.456-4.565-5.426-12.79-11.67-25.968-10.723-14.814,1.077-25.193,9.733-31.308,16.8a64.714,64.714,0,0,0-9.84,15.266c-1.077,2.2-1.1,4.027-.517,4.457.345.258.883.065,1.572-.538a45.39,45.39,0,0,1,6.137-4.306,40.515,40.515,0,0,1,10.981-4.522M166.8,159.219c-3.058.754-7.536-2.433-13.092-6.4-11.886-8.462-29.844-21.252-51.957-8.376a48.142,48.142,0,0,0-6.094,4.285c-.969.861-1.529.775-1.83.56-.775-.581-.581-2.605.452-4.716a63.731,63.731,0,0,1,9.862-15.309c6.137-7.106,16.6-15.826,31.48-16.881,10.508-.754,19.551,2.971,26.162,10.809a41.633,41.633,0,0,1,8.182,16.02c1.378,5.146,1.723,10.228.883,13.608-.689,3.531-1.852,5.577-3.553,6.244-.172.065-.344.108-.5.151" transform="translate(-73.252 -88.112)" fill="#2ebad5"/>
    <path id="Tracé_17598" data-name="Tracé 17598" d="M104.32,130.026c16.343-3.962,30.1,5,39.856,11.348,5.857,3.833,10.508,6.847,13.372,5.577,1.593-.689,2.627-2.691,3.208-6.115,1.292-6.029-1.4-19.314-9.776-28.53-4.694-5.168-13.027-11.025-26.1-9.539-14.62,1.68-24.654,10.615-30.49,17.85a64.766,64.766,0,0,0-9.28,15.439c-.99,2.175-.969,3.962-.409,4.371.323.215.84.022,1.486-.6a50.42,50.42,0,0,1,5.943-4.522,41.176,41.176,0,0,1,12.187-5.275m52.754,17.4c-3.036.732-7.493-2.175-13.07-5.792-12.015-7.838-30.188-19.659-51.677-6.072a47.965,47.965,0,0,0-5.9,4.479c-.969.926-1.55.84-1.873.624-.8-.56-.667-2.584.3-4.737a64.146,64.146,0,0,1,9.3-15.5c5.878-7.278,15.977-16.278,30.7-17.958,13.178-1.507,21.6,4.414,26.355,9.625,8.828,9.711,11.089,22.91,9.84,28.789-.581,3.531-1.68,5.6-3.359,6.352-.215.065-.409.151-.624.194" transform="translate(-65.938 -80.214)" fill="#23adc9"/>
    <path id="Tracé_17599" data-name="Tracé 17599" d="M96.07,120.182c15.5-3.768,28.918,4.177,38.5,9.862,5.921,3.51,10.594,6.266,13.393,4.931,1.529-.754,2.5-2.756,2.971-6.158,1.077-5.964-1.959-18.862-10.465-27.583-4.823-4.931-13.285-10.379-26.226-8.355C86.6,97.229,75.981,127.094,75.873,127.4c-.9,2.153-.84,3.9-.28,4.263.3.194.818-.043,1.4-.646a49.879,49.879,0,0,1,5.771-4.716,40.345,40.345,0,0,1,13.307-6.115m51.333,15.4c-3.015.732-7.472-1.916-13.027-5.211-12.144-7.192-30.511-18.087-51.419-3.747a47.83,47.83,0,0,0-5.706,4.673c-.947.969-1.55.926-1.895.689-.818-.538-.754-2.562.129-4.716a64.211,64.211,0,0,1,8.764-15.7c5.62-7.429,15.352-16.752,29.93-19.056,13.113-2.067,21.661,3.467,26.549,8.462,9,9.216,11.627,22.092,10.572,27.906-.474,3.531-1.507,5.62-3.187,6.438a3.053,3.053,0,0,1-.711.258" transform="translate(-58.679 -72.244)" fill="#14a1bf"/>
    <path id="Tracé_17600" data-name="Tracé 17600" d="M87.829,110c14.707-3.574,27.755,3.4,37.165,8.419,5.986,3.187,10.7,5.706,13.415,4.263,1.486-.8,2.39-2.821,2.735-6.18.84-5.663-2.11-18.044-11.154-26.635-4.952-4.694-13.544-9.754-26.355-7.17-.538.108-1.1.237-1.636.366-26.054,6.33-35.291,35.076-35.4,35.356-.8,2.089-.732,3.833-.172,4.177.28.172.775-.065,1.335-.689a52.008,52.008,0,0,1,5.577-4.909,40.265,40.265,0,0,1,14.491-7m49.912,13.436c-2.971.732-7.45-1.658-12.962-4.608-12.295-6.567-30.877-16.494-51.139-1.443a50.461,50.461,0,0,0-5.534,4.845c-.926,1.034-1.55.99-1.916.775-.861-.517-.861-2.519-.022-4.716.086-.28,9.8-30.468,37.38-36.045,13.027-2.627,21.748,2.519,26.786,7.3,8.29,7.881,12.316,20.176,11.3,27.044-.366,3.51-1.335,5.641-2.993,6.524a3.233,3.233,0,0,1-.9.323" transform="translate(-51.428 -63.975)" fill="#0694b3"/>
    <path id="Tracé_17601" data-name="Tracé 17601" d="M79.615,99.468c13.953-3.4,26.614,2.648,35.83,7.063,6.029,2.885,10.788,5.146,13.436,3.617,1.443-.84,2.261-2.864,2.5-6.2.646-5.6-2.648-17.613-11.821-25.688-5.06-4.457-13.738-9.108-26.4-6.029a.306.306,0,0,0-.129.043C66.093,78.9,57.48,108.9,57.394,109.2c-.775,2.261-.538,3.811-.065,4.07.258.151.732-.129,1.249-.732a51.469,51.469,0,0,1,5.4-5.1,39.815,39.815,0,0,1,15.632-7.967m48.491,11.584c-2.95.711-7.407-1.421-12.9-4.027-12.424-5.943-31.2-14.922-50.881.84a50.407,50.407,0,0,0-5.34,5.039c-.926,1.077-1.572,1.077-1.938.84-.883-.5-.947-2.476-.194-4.716.086-.28,8.764-30.576,36.045-37.315a.306.306,0,0,0,.129-.043c12.9-3.122,21.748,1.615,26.894,6.158,8.441,7.429,12.812,19.379,12.015,26.162-.258,3.51-1.163,5.663-2.778,6.61a3.262,3.262,0,0,1-1.055.452" transform="translate(-44.205 -55.448)" fill="#0e89a9"/>
    <path id="Tracé_17602" data-name="Tracé 17602" d="M71.265,88.714c13.242-3.208,25.473,1.959,34.473,5.749,6.094,2.584,10.9,4.608,13.458,2.993,1.4-.9,2.153-2.928,2.282-6.2.474-5.512-3.187-17.161-12.467-24.741C103.8,62.25,94.95,57.987,82.289,61.669,55.7,69.464,48.1,99.523,48.031,99.824c-.667,2.2-.409,3.747.043,3.983.237.129.689-.151,1.184-.754a50.05,50.05,0,0,1,5.232-5.318,39.807,39.807,0,0,1,16.774-9.022m47.026,9.819c-2.928.711-7.386-1.163-12.812-3.467-12.553-5.318-31.545-13.328-50.6,3.144a52.815,52.815,0,0,0-5.146,5.232c-.9,1.141-1.572,1.141-1.981.926-.9-.474-1.055-2.455-.366-4.716.065-.28,7.752-30.7,34.71-38.607,12.9-3.811,21.984.6,27.3,4.952,8.57,7,13.264,18.582,12.7,25.279-.129,3.488-.969,5.685-2.584,6.718a3.335,3.335,0,0,1-1.227.538" transform="translate(-36.845 -46.761)" fill="#007ea0"/>
    <path id="Tracé_17603" data-name="Tracé 17603" d="M62.962,77.71c12.553-3.058,24.353,1.292,33.1,4.522,6.158,2.261,11,4.048,13.5,2.347,1.357-.947,2.024-2.971,2.046-6.223.28-5.426-3.682-16.709-13.07-23.815-5.34-4.048-14.34-7.945-26.915-3.682C45.327,59.817,38.76,89.94,38.7,90.242c-.6,2.175-.3,3.682.151,3.876.237.108.667-.215,1.1-.8a54.083,54.083,0,0,1,5.039-5.512,40.028,40.028,0,0,1,17.979-10.1M108.5,85.828c-2.928.711-7.342-.926-12.7-2.907-12.7-4.694-31.889-11.757-50.342,5.426a51.737,51.737,0,0,0-4.952,5.4c-.883,1.206-1.572,1.227-2,1.034-.947-.452-1.163-2.39-.538-4.716.065-.28,6.718-30.791,33.375-39.878,12.876-4.393,22.114-.366,27.6,3.79,8.7,6.567,13.695,17.786,13.372,24.4-.022,3.488-.8,5.706-2.369,6.8a4,4,0,0,1-1.443.646" transform="translate(-29.511 -37.89)" fill="#007295"/>
    <path id="Tracé_17604" data-name="Tracé 17604" d="M54.751,66.462c11.886-2.885,23.19.689,31.674,3.381,6.223,1.959,11.111,3.51,13.522,1.7,1.313-.99,1.916-3.036,1.83-6.244.108-6.352-5.082-16.881-13.651-22.867-5.491-3.833-14.663-7.386-27.152-2.519C35.049,50.033,29.473,80.2,29.429,80.5c-.517,2.153-.172,3.617.237,3.79.172.065.56-.151,1.034-.818a52.6,52.6,0,0,1,4.866-5.706c6.309-6.374,12.833-9.754,19.185-11.3m44.033,6.5c-2.907.711-7.3-.667-12.575-2.347-12.833-4.048-32.234-10.185-50.084,7.73a51.9,51.9,0,0,0-4.759,5.6c-.861,1.27-1.572,1.313-2.024,1.12-.969-.431-1.27-2.369-.711-4.694.043-.28,5.685-30.9,32.04-41.17,12.833-5,22.264-1.335,27.906,2.605C97.385,47.944,102.7,58.8,102.6,65.342c.108,3.467-.6,5.728-2.153,6.89a5.049,5.049,0,0,1-1.658.732" transform="translate(-22.248 -28.86)" fill="#00678b"/>
    <path id="Tracé_17605" data-name="Tracé 17605" d="M46.585,54.745c11.24-2.735,22.049.129,30.253,2.3,6.287,1.658,11.24,2.971,13.565,1.055,1.27-1.034,1.787-3.079,1.593-6.244-.108-6.223-5.555-16.365-14.233-21.941-5.641-3.617-14.986-6.8-27.411-1.335-25.58,11.24-30.145,41.471-30.188,41.794-.452,2.218-.022,3.574.323,3.7.108.043.452-.065.947-.861a49.9,49.9,0,0,1,4.672-5.9C32.783,60.128,39.76,56.4,46.585,54.745m42.44,4.974c-2.907.711-7.235-.431-12.424-1.809C63.639,54.465,44.023,49.3,26.8,67.923a52.1,52.1,0,0,0-4.565,5.792c-.84,1.335-1.593,1.4-2.046,1.206-.99-.409-1.357-2.325-.883-4.694.043-.28,4.651-31.006,30.7-42.462,12.79-5.62,22.415-2.325,28.25,1.421C87.174,34.914,92.794,45.4,92.9,51.838c.215,3.445-.409,5.728-1.916,6.976a4.972,4.972,0,0,1-1.959.9" transform="translate(-14.986 -19.425)" fill="#005d82"/>
    <path id="Tracé_17606" data-name="Tracé 17606" d="M46.881,14.17A35.741,35.741,0,0,0,39.5,16.883c-25.236,12.4-28.789,42.7-28.832,43-.366,2.2.065,3.488.409,3.617.108.043.452-.172.883-.883a56.456,56.456,0,0,1,4.5-6.115c17.032-19.788,37.165-15.46,50.515-12.618,6.352,1.357,11.369,2.433,13.608.431,1.227-1.1,1.68-3.122,1.378-6.244-.3-6.115-6.029-15.869-14.771-21.015a26.725,26.725,0,0,0-20.3-2.885M11.4,64.47a1.083,1.083,0,0,1-.646-.043c-1.034-.366-1.464-2.3-1.055-4.694.022-.28,3.639-31.114,29.37-43.754,12.747-6.266,22.609-3.337,28.616.215,9.022,5.318,14.943,15.46,15.245,21.791.323,3.424-.215,5.749-1.7,7.063-2.627,2.347-7.859,1.227-14.47-.194-13.113-2.8-32.923-7.063-49.546,12.295a57.952,57.952,0,0,0-4.393,5.964c-.517.9-1.012,1.27-1.421,1.357" transform="translate(-7.487 -9.663)" fill="#005379"/>
    <path id="Tracé_17607" data-name="Tracé 17607" d="M37.327,1.88A36.53,36.53,0,0,0,28.649,5.3C3.737,18.826,1.2,49.208,1.174,49.509v.043c-.3,2.261.237,3.424.517,3.51.065.022.366-.086.818-.9a56.553,56.553,0,0,1,4.306-6.309c16.429-20.563,36.82-17.183,50.321-14.965,6.417,1.055,11.477,1.895,13.651-.215,1.184-1.141,1.55-3.187,1.141-6.266-.5-5.986-6.481-15.374-15.288-20.111A26.634,26.634,0,0,0,37.327,1.88M1.971,54.1a1.01,1.01,0,0,1-.624-.022C.27,53.73-.225,51.857.1,49.423.162,48.541,2.94,18.051,28.133,4.378c12.726-6.912,22.781-4.371,29-1.012C66.374,8.34,72.446,17.922,72.984,24.317c.452,3.4-.022,5.749-1.464,7.149-2.562,2.5-7.859,1.615-14.577.5C43.7,29.786,23.7,26.47,7.655,46.538a58.026,58.026,0,0,0-4.2,6.158c-.538.926-1.034,1.292-1.486,1.4" transform="translate(0 0)" fill="#014970"/>
    <path id="Tracé_17608" data-name="Tracé 17608" d="M1077.706,272.652l-.873-.647a6.586,6.586,0,0,1-3.622.938c-2.845,0-4.98-1.39-4.98-3.266a2.919,2.919,0,0,1,2-2.619,2.274,2.274,0,0,1-.841-1.746c0-1.585,1.488-2.684,3.719-2.684a4.569,4.569,0,0,1,4.365,2.555l-1.39.582a2.993,2.993,0,0,0-2.943-1.811c-1.293,0-2.1.485-2.1,1.326,0,.744.711,1.2,1.843,2.1l3.816,2.845a3.875,3.875,0,0,0,.614-2.134h1.552a5.08,5.08,0,0,1-1,3.007l2.134,1.585h-2.3Zm-2.037-1.552-4.333-3.2-.162-.129a1.907,1.907,0,0,0-1.229,1.746c0,1.391,1.584,2.1,3.4,2.1a4.679,4.679,0,0,0,2.328-.517" transform="translate(-838.217 -206.078)" fill="#2ebad5"/>
  </g>
</svg>
