<?xml version="1.0" encoding="UTF-8"?>
<svg width="80px" height="57px" viewBox="0 0 80 57" version="1.1" xmlns="http://www.w3.org/2000/svg" xmlns:xlink="http://www.w3.org/1999/xlink">
    <title>logo-header</title>
    <g id="Page-1" stroke="none" stroke-width="1" fill="none" fill-rule="evenodd">
        <g id="logo-header" transform="translate(-0.000176, 0.994512)" fill-rule="nonzero">
            <path d="M80.0001761,35.1054878 L80.0001761,12.9054878 C80.0001761,5.8914716 74.3141923,0.20548815 67.3001761,0.20548815 C60.28616,0.20548815 54.6001763,5.8914716 54.6001761,12.9054878 L54.6001761,28.7054878 C54.6001761,30.7489413 52.9436297,32.4054876 50.9001761,32.4054876 C48.8567226,32.4054876 47.2001762,30.7489413 47.2001761,28.7054878 L47.2001761,2.50548777 L38.2001761,2.50548777 L38.2001761,9.40548777 C33.1708114,1.72639841 23.7022393,-1.74785449 14.8998061,0.856006648 C6.09737285,3.45986778 0.0426097897,11.526102 8.77810818e-05,20.7054878 C-0.0268125779,29.9965454 6.13143273,38.1707788 15.0694233,40.7078647 C24.0074139,43.2449506 33.5418317,39.525145 38.4001761,31.6054878 C39.8819489,37.8851704 45.8306252,42.0607424 52.2401233,41.3202028 C58.6496214,40.5796632 63.4894094,35.1576152 63.5001761,28.7054878 L63.5001761,13.0054878 C63.5001761,10.9620342 65.1567226,9.30548777 67.2001761,9.30548777 C69.2436297,9.30548777 70.9001761,10.9620342 70.9001761,13.0054878 L70.9001761,35.2054878 L80.0001761,35.2054878 L80.0001761,35.1054878 Z M20.7001761,32.5055914 C14.2109165,32.5330429 8.92798349,27.2948172 8.90028068,20.8055578 C8.87279492,14.3162983 14.1109887,9.03333369 20.600248,9.0055914 C27.0895072,8.97806678 32.3725035,14.2162287 32.4001761,20.7054878 C32.4001761,27.1835943 27.17805,32.4505886 20.7001761,32.5055914 Z" id="Shape" fill="#DC143C"></path>
            <path d="M13.1001761,54.0054878 L17.2001761,54.0054878 C17.8076894,54.0054878 18.3001761,53.513001 18.3001761,52.9054878 C18.3001761,52.2979745 17.8076894,51.8054878 17.2001761,51.8054878 L15.3001761,51.8054878 C13.6985504,51.8054878 12.4001761,50.5071135 12.4001761,48.9054878 C12.4001761,47.303862 13.6985504,46.0054878 15.3001761,46.0054878 L19.0001761,46.0054878 L19.0001761,47.8054878 L15.3001761,47.8054878 C14.6926629,47.8054878 14.2001761,48.2979745 14.2001761,48.9054878 C14.2001761,49.513001 14.6926629,50.0054878 15.3001761,50.0054878 L17.2001761,50.0054878 C18.8018019,50.0054878 20.1001761,51.303862 20.1001761,52.9054878 C20.1001761,54.5071135 18.8018019,55.8054878 17.2001761,55.8054878 L13.1001761,55.8054878 L13.1001761,54.0054878 Z" id="Path" fill="#000000"></path>
            <path d="M22.5001761,54.0054878 L26.6001761,54.0054878 C27.2076894,54.0054878 27.7001761,53.513001 27.7001761,52.9054878 C27.7001761,52.2979745 27.2076894,51.8054878 26.6001761,51.8054878 L24.7001761,51.8054878 C23.0985504,51.8054878 21.8001761,50.5071135 21.8001761,48.9054878 C21.8001761,47.303862 23.0985504,46.0054878 24.7001761,46.0054878 L28.4001761,46.0054878 L28.4001761,47.8054878 L24.7001761,47.8054878 C24.0926629,47.8054878 23.6001761,48.2979745 23.6001761,48.9054878 C23.6001761,49.513001 24.0926629,50.0054878 24.7001761,50.0054878 L26.6001761,50.0054878 C28.2018019,50.0054878 29.5001761,51.303862 29.5001761,52.9054878 C29.5001761,54.5071135 28.2018019,55.8054878 26.6001761,55.8054878 L22.5001761,55.8054878 L22.5001761,54.0054878 Z" id="Path" fill="#000000"></path>
            <path d="M53.8001761,55.8054878 L52.2001761,55.8054878 C50.5985504,55.8054878 49.3001761,54.5071135 49.3001761,52.9054878 L49.3001761,44.3054878 L51.1001761,44.3054878 L51.1001761,46.1054878 L52.8001761,46.1054878 L52.8001761,47.9054878 L51.1001761,47.9054878 L51.1001761,52.9054878 C51.1056047,53.5107381 51.5949258,54.0000592 52.2001761,54.0054878 L53.8001761,54.0054878 L53.8001761,55.8054878 Z" id="Path" fill="#000000"></path>
            <path d="M10.0001761,53.0054878 C10.0230954,53.5108854 10.3999767,53.9296424 10.9001761,54.0054878 L10.9001761,55.8054878 C9.98285478,55.8079196 9.12294929,55.3592733 8.60017614,54.6054878 L8.50017614,54.5054878 L8.40017614,54.5054878 C7.50010945,55.4087193 6.27527999,55.9130608 5.00017614,55.9055718 C2.23875239,55.9055718 0.00017613862,53.6669115 0.00017613862,50.9054878 C0.00017613862,48.144064 2.23875239,45.9054878 5.00017614,45.9054878 C7.76159989,45.9054878 10.0001761,48.144064 10.0001761,50.9054878 L10.0001761,53.0054878 Z M1.90017614,50.9054878 C1.90017614,52.6175705 3.28809341,54.0054878 5.00017614,54.0054878 C6.71225886,54.0054878 8.10017614,52.6175705 8.10017614,50.9054878 C8.10017614,49.193405 6.71225886,47.8054878 5.00017614,47.8054878 C3.29263338,47.8163989 1.91108729,49.197945 1.90017614,50.9054878 Z" id="Shape" fill="#000000"></path>
            <polygon id="Path" fill="#000000" points="33.3001761 55.8054878 33.3001761 53.0054878 29.9001761 46.1054878 32.0001761 46.1054878 34.3001761 50.9054878 36.6001761 46.1054878 38.7001761 46.1054878 35.3001761 53.0054878 35.3001761 55.8054878"></polygon>
            <path d="M40.0001761,54.0054878 L44.3001761,54.0054878 C44.9076894,54.0054878 45.4001761,53.513001 45.4001761,52.9054878 C45.4001761,52.2979745 44.9076894,51.8054878 44.3001761,51.8054878 L42.4001761,51.8054878 C40.7985504,51.8054878 39.5001761,50.5071135 39.5001761,48.9054878 C39.5001761,47.303862 40.7985504,46.0054878 42.4001761,46.0054878 L46.1001761,46.0054878 L46.1001761,47.8054878 L42.4001761,47.8054878 C41.7926629,47.8054878 41.3001761,48.2979745 41.3001761,48.9054878 C41.3001761,49.513001 41.7926629,50.0054878 42.4001761,50.0054878 L44.3001761,50.0054878 C45.9018019,50.0054878 47.2001761,51.303862 47.2001761,52.9054878 C47.2001761,54.5071135 45.9018019,55.8054878 44.3001761,55.8054878 L40.0001761,55.8054878 L40.0001761,54.0054878 Z" id="Path" fill="#000000"></path>
            <path d="M59.8001761,45.9054878 C57.1308201,45.9546188 54.9942643,48.1356862 55.0001761,50.8054878 C54.9787738,52.094175 55.4743815,53.3377536 56.3763032,54.2584654 C57.2782249,55.1791771 58.5113216,55.7003175 59.8001761,55.7054878 L62.9001761,55.7054878 L62.9001761,53.9054878 L59.8001761,53.9054878 C58.4940545,53.9004312 57.3689371,52.9836688 57.1001761,51.7054878 L64.5001761,51.7054878 C64.5826522,51.4130042 64.6164368,51.1089421 64.6001761,50.8054878 C64.5493381,48.1591318 62.4449216,46.0108733 59.8001761,45.9054878 L59.8001761,45.9054878 Z M57.0001761,50.2054878 C57.2020776,48.842321 58.3721384,47.832796 59.7501761,47.832796 C61.1282138,47.832796 62.2982747,48.842321 62.5001761,50.2054878 L57.0001761,50.2054878 Z" id="Shape" fill="#000000"></path>
            <path d="M78.8001761,46.9054878 C77.2739778,45.7070988 75.1263744,45.7070988 73.6001761,46.9054878 C73.5001761,47.0054878 73.4001761,47.0054878 73.4001761,47.1054878 L73.2001761,46.9054878 C71.6739778,45.7070988 69.5263744,45.7070988 68.0001761,46.9054878 C67.278304,47.4994149 66.8421946,48.3716338 66.8001761,49.3054878 L66.8001761,55.8054878 L68.6001761,55.8054878 L68.6001761,49.3054878 C68.7481598,48.3881134 69.5735052,47.7365249 70.5001761,47.8054878 C71.43772,47.6997484 72.2854414,48.3690022 72.4001761,49.3054878 L72.4001761,49.3054878 L72.4001761,55.8054878 L74.2001761,55.8054878 L74.2001761,49.3054878 C74.3481598,48.3881134 75.1735052,47.7365249 76.1001761,47.8054878 C77.03772,47.6997484 77.8854414,48.3690022 78.0001761,49.3054878 L78.0001761,55.8054878 L80.0001761,55.8054878 L80.0001761,49.3054878 C80.0001761,48.3612159 79.5555937,47.4720509 78.8001761,46.9054878 L78.8001761,46.9054878 Z" id="Path" fill="#000000"></path>
        </g>
    </g>
</svg>