<svg xmlns="http://www.w3.org/2000/svg" xmlns:xlink="http://www.w3.org/1999/xlink"><symbol viewBox="0 0 30 40" id="agency-map-pin" xmlns="http://www.w3.org/2000/svg"><path d="M25.614 25.935 15.283 40 5.05 25.935c-1.657-2.144-3.357-5.4-3.913-8.197a14.424 14.424 0 1 1 28.293 0c-.557 2.798-2.257 5.955-3.816 8.197z" fill="#FFFAF0"/><rect x="10" y="9" width="11" height="11" rx="5.5" fill="#1F24E9"/></symbol><symbol viewBox="0 0 20 20" id="anchor" xmlns="http://www.w3.org/2000/svg"><path d="M10 7.7c-1.9 0-3.5-1.6-3.5-3.5S8.1.7 10 .7s3.5 1.6 3.5 3.5-1.6 3.5-3.5 3.5zm0-5c-.8 0-1.5.7-1.5 1.5s.7 1.5 1.5 1.5 1.5-.7 1.5-1.5-.7-1.5-1.5-1.5z"/><path d="M10 19.3c-.6 0-1-.4-1-1V6.7c0-.6.4-1 1-1s1 .4 1 1v11.7c0 .5-.4.9-1 .9z"/><path d="M10 19.3c-2.5 0-4.8-1-6.6-2.7C1.6 14.8.7 12.5.7 10c0-.6.4-1 1-1h2.5c.6 0 1 .4 1 1s-.4 1-1 1H2.7c.2 1.6.9 3 2.1 4.2 1.4 1.4 3.2 2.1 5.2 2.1s3.8-.8 5.2-2.1c1.1-1.1 1.9-2.6 2.1-4.2h-1.4c-.6 0-1-.4-1-1s.4-1 1-1h2.5c.6 0 1 .4 1 1 0 2.5-1 4.8-2.7 6.6s-4.2 2.7-6.7 2.7z"/></symbol><symbol viewBox="0 0 12 8" id="arrow-bottom-tiny" xmlns="http://www.w3.org/2000/svg"><path d="M6 7.1.5 1.5l1-1L6 4.9 10.5.5l1 1z"/></symbol><symbol viewBox="0 0 32 32" id="arrow-fill-ne" xmlns="http://www.w3.org/2000/svg"><path d="M16 29.333c7.364 0 13.333-5.97 13.333-13.333 0-7.364-5.97-13.333-13.333-13.333C8.636 2.667 2.667 8.637 2.667 16c0 7.364 5.97 13.333 13.333 13.333zm4.003-20 1.334 1.333H12.46l-1.333-1.333h8.876zm1.334 1.333v8.876l1.333 1.333V12l-1.333-1.334zm-10.842 9.9 8.485-8.485.943.942-8.485 8.486-.943-.943z" clip-rule="evenodd" fill-rule="evenodd"/></symbol><symbol viewBox="0 0 50 50" id="arrow-fill-s" xmlns="http://www.w3.org/2000/svg"><path fill-rule="evenodd" clip-rule="evenodd" d="M7.241 7.241c-9.655 9.655-9.655 25.31 0 34.965 9.655 9.655 25.31 9.655 34.965 0 9.655-9.655 9.655-25.31 0-34.965-9.655-9.655-25.31-9.655-34.965 0Zm20.977 31.471h-3.496l11.637-11.637h3.497L28.218 38.712Zm-3.496 0L13.084 27.075H9.588l11.637 11.637h3.497Zm1.236-27.195v22.25h-2.473v-22.25h2.473Z"/></symbol><symbol viewBox="0 0 42 43" id="arrow-right" xmlns="http://www.w3.org/2000/svg"><path d="M35 24 24.5 34.5V32L35 21.5V24zm0-2.5L24.5 11V8.5L35 19v2.5zm-5.3-.9H7v1.8h22.7v-1.8z"/></symbol><symbol viewBox="0 0 30 52" id="blockquote" xmlns="http://www.w3.org/2000/svg"><path d="M3.5 51.3h-3V25.9L12.7.7 15.4 2 3.5 26.6zM17.6 51.3h-3V25.9L26.7.7 29.5 2 17.6 26.6z"/></symbol><symbol viewBox="0 0 16 16" id="calendar" xmlns="http://www.w3.org/2000/svg"><path d="M12.7 15.3H3.3c-1.1 0-2-.9-2-2V4c0-1.1.9-2 2-2h9.3c1.1 0 2 .9 2 2v9.3c.1 1.1-.8 2-1.9 2zm-9.4-12c-.3 0-.6.3-.6.7v9.3c0 .4.3.7.6.7h9.3c.4 0 .7-.3.7-.7V4c0-.4-.3-.7-.7-.7H3.3z"/><path d="M10.7 4.7c-.4 0-.7-.3-.7-.7V1.3c0-.4.3-.7.7-.7s.7.3.7.7V4c-.1.4-.4.7-.7.7zM5.3 4.7c-.3 0-.6-.3-.6-.7V1.3c0-.3.3-.6.6-.6s.7.3.7.6V4c0 .4-.3.7-.7.7zM14 7.3H2c-.4 0-.7-.3-.7-.6S1.6 6 2 6h12c.4 0 .7.3.7.7s-.3.6-.7.6z"/></symbol><symbol viewBox="0 0 10 7" id="checkbox" xmlns="http://www.w3.org/2000/svg"><path d="M3.5 6.5c-.1 0-.2 0-.3-.1L.7 4.1c-.2-.2-.2-.5 0-.7s.5-.2.7 0l2.2 2L8.8.7c.2-.2.5-.2.7 0s.2.5 0 .7L4 6.4c-.3.1-.4.1-.5.1z"/></symbol><symbol viewBox="0 0 28 29" id="chevron-down" xmlns="http://www.w3.org/2000/svg"><path d="m4.083 10.723 7.725 7.725h4.37l7.725-7.725h-2.185l-7.725 7.725-7.725-7.725H4.083z"/></symbol><symbol viewBox="0 0 31 50" id="chevron-right" xmlns="http://www.w3.org/2000/svg"><path d="M0 42.6 13.6 29v-3.9L0 38.8v3.8zm0-31.1 13.6 13.6v-3.9L0 7.6v3.9z"/></symbol><symbol viewBox="0 0 20 20" id="chevron-small-right" xmlns="http://www.w3.org/2000/svg"><path d="m7.409 17.938 5.517-5.517v-2.42l-5.517 5.516v2.421zm0-13.454 5.517 5.517V7.62L7.408 2.103v2.381z"/></symbol><symbol viewBox="0 0 16 16" id="cross" xmlns="http://www.w3.org/2000/svg"><path d="m6.881 8.16-4.57 4.647 1.063 1.08 4.57-4.648 4.69 4.763 1.064-1.08-4.69-4.764L14 3.081 12.937 2 7.944 7.079l-4.88-4.956-1.063 1.08 4.88 4.956z"/></symbol><symbol viewBox="0 0 16 16" id="document" xmlns="http://www.w3.org/2000/svg"><path d="M12 15.3H4c-.5 0-1-.2-1.4-.6-.4-.3-.6-.8-.6-1.4V4c0-.5.2-1 .6-1.4C3 2.2 3.5 2 4 2h1.3c.4 0 .7.3.7.7s-.3.6-.7.6H4c-.2 0-.3.1-.5.2s-.2.3-.2.5v9.3c0 .2.1.3.2.5.2.1.3.2.5.2h8c.2 0 .3-.1.5-.2.1-.1.2-.3.2-.5V4c0-.2-.1-.3-.2-.5-.1-.1-.3-.2-.5-.2h-1.3c-.4 0-.7-.3-.7-.6s.3-.7.7-.7H12c.5 0 1 .2 1.4.6.4.4.6.9.6 1.4v9.3c0 .5-.2 1-.6 1.4-.4.4-.9.6-1.4.6z"/><path d="M10 4.7H6c-.7 0-1.3-.6-1.3-1.3V2c0-.7.6-1.3 1.3-1.3h4c.7 0 1.3.6 1.3 1.3v1.3c0 .8-.6 1.4-1.3 1.4zM6 2v1.3h4V2H6zm4 0z"/></symbol><symbol viewBox="0 0 42 42" id="download" xmlns="http://www.w3.org/2000/svg"><path d="M20.1 6.6v15h1.8v-15zM21 26.9l-8-8h-2.5l8 8zM29 18.9l-8 8h2.5l8-8zM7 33.6h28v1.8H7z"/></symbol><symbol viewBox="0 0 16 16" id="external-link" xmlns="http://www.w3.org/2000/svg"><path d="M10.7 14.5H3.3c-.6 0-1-.2-1.3-.5s-.5-.7-.5-1.3V5.3c0-.5.2-1 .5-1.3s.7-.5 1.3-.5h4v1h-4c-.2 0-.4.1-.5.2l-.1.1c-.1.1-.2.3-.2.5v7.4c0 .2.1.4.2.5l.1.1c.1.1.1.2.5.2h7.4c.2 0 .4-.1.5-.2l.1-.1c.1-.1.2-.1.2-.5v-4h1v4c0 .2 0 .8-.5 1.3-.4.5-1.1.5-1.3.5zM14.5 6h-1V2.5H10v-1h4.5z"/><path d="m6.39 8.973 7.283-7.283.707.707-7.283 7.284z"/></symbol><symbol viewBox="0 0 60 60" id="facebook" xmlns="http://www.w3.org/2000/svg"><path d="M33.032 32.4h4.064L38.72 26h-5.689v-3.2c0-1.648 0-3.2 3.25-3.2h2.439v-5.376c-.53-.069-2.53-.224-4.644-.224-4.413 0-7.547 2.651-7.547 7.52V26h-4.876v6.4h4.876V46h6.502V32.4z"/></symbol><symbol viewBox="0 0 24 24" id="file" xmlns="http://www.w3.org/2000/svg"><path d="M18 23H6c-.8 0-1.6-.3-2.1-.9-.6-.5-.9-1.3-.9-2.1V4c0-.8.3-1.6.9-2.1C4.4 1.3 5.2 1 6 1h7c.3 0 .5.1.7.3l7 7c.2.2.3.4.3.7v11c0 .8-.3 1.6-.9 2.1s-1.3.9-2.1.9zM6 3c-.3 0-.5.1-.7.3-.2.2-.3.4-.3.7v16c0 .3.1.5.3.7.2.2.4.3.7.3h12c.3 0 .5-.1.7-.3s.3-.4.3-.7V9.4L12.6 3H6z"/><path d="M20 10h-7c-.6 0-1-.4-1-1V2c0-.6.4-1 1-1s1 .4 1 1v6h6c.6 0 1 .4 1 1s-.4 1-1 1z"/></symbol><symbol viewBox="0 0 24 24" id="filter" xmlns="http://www.w3.org/2000/svg"><path d="M14 22c-.2 0-.3 0-.4-.1l-4-2c-.4-.2-.6-.5-.6-.9v-6.2L1.2 3.6c-.2-.3-.3-.7-.1-1 .2-.4.5-.6.9-.6h20c.4 0 .7.2.9.6s.1.8-.1 1.1L15 12.8V21c0 .3-.2.7-.5.9-.1.1-.3.1-.5.1zm-3-3.6 2 1v-6.9c0-.2.1-.5.2-.6L19.8 4H4.2l6.6 7.8c.2.2.2.4.2.6v6z"/></symbol><symbol viewBox="0 0 20 20" id="globe" xmlns="http://www.w3.org/2000/svg"><path d="M10 0C4.477 0 0 4.477 0 10s4.477 10 10 10 10-4.477 10-10S15.523 0 10 0zm5.658 13.333c.179-.843.291-1.737.328-2.667h2.655a8.577 8.577 0 0 1-.639 2.667h-2.344zM4.342 6.666a15.903 15.903 0 0 0-.328 2.667H1.359c.069-.92.284-1.815.639-2.667h2.344zm9.95 0c.2.854.321 1.747.36 2.667h-3.985V6.666h3.626zM10.668 1.43c.304.09.605.237.9.446.554.39 1.084.992 1.532 1.739.31.517.578 1.092.802 1.719h-3.234V1.43zM6.9 3.614c.448-.747.978-1.348 1.532-1.739.295-.209.596-.357.9-.445v3.902H6.1A9.646 9.646 0 0 1 6.9 3.614zm2.432 3.052v2.667H5.347c.04-.92.16-1.813.36-2.667h3.626zm-7.335 6.667a8.596 8.596 0 0 1-.64-2.667h2.656c.037.93.15 1.824.328 2.667H1.998zm3.35-2.667h3.985v2.667H5.707c-.2-.853-.32-1.747-.36-2.667zm3.985 4v3.903a3.035 3.035 0 0 1-.9-.445c-.554-.391-1.084-.992-1.532-1.74a9.652 9.652 0 0 1-.802-1.718h3.234zm3.766 1.719c-.448.747-.978 1.349-1.532 1.74a3.054 3.054 0 0 1-.9.445v-3.903H13.9a9.672 9.672 0 0 1-.802 1.719v-.001zm-2.432-3.052v-2.667h3.986c-.04.92-.16 1.814-.36 2.667h-3.626zm5.32-4c-.037-.93-.15-1.824-.328-2.667h2.344c.355.852.57 1.746.64 2.667h-2.656zm1.318-4h-1.998c-.388-1.224-.924-2.298-1.569-3.155a8.712 8.712 0 0 1 3.567 3.155zM3.872 3.872a8.65 8.65 0 0 1 2.39-1.694c-.644.857-1.18 1.931-1.569 3.155H2.695a8.647 8.647 0 0 1 1.177-1.461zM2.695 14.667h1.998c.389 1.224.925 2.298 1.57 3.154a8.711 8.711 0 0 1-3.567-3.155zm13.433 1.461a8.65 8.65 0 0 1-2.39 1.693c.645-.856 1.18-1.93 1.57-3.154h1.997a8.647 8.647 0 0 1-1.177 1.461z"/></symbol><symbol viewBox="0 0 16 16" id="home" xmlns="http://www.w3.org/2000/svg"><path d="M12.7 15.3H3.3c-.5 0-1-.2-1.4-.6s-.6-.9-.6-1.4V6c0-.2.1-.4.3-.5l6-4.7c.2-.2.6-.2.8 0l6 4.7c.2.1.3.3.3.5v7.3c0 .5-.2 1-.6 1.4s-.9.6-1.4.6zm-10-9v7c0 .2.1.3.2.5.1.1.3.2.4.2h9.3c.2 0 .3-.1.5-.2.1-.1.2-.3.2-.5v-7L8 2.2 2.7 6.3z"/><path d="M10 15.3c-.4 0-.7-.3-.7-.7v-6H6.7v6c0 .4-.3.7-.7.7s-.7-.3-.7-.6V8c0-.4.3-.7.7-.7h4c.4 0 .7.3.7.7v6.7c0 .3-.3.6-.7.6z"/></symbol><symbol viewBox="0 0 60 60" id="linkedin" xmlns="http://www.w3.org/2000/svg"><path d="M20.369 18.43c0 .91-.355 1.781-.985 2.424a3.323 3.323 0 0 1-2.375 1.003c-.89 0-1.744-.362-2.373-1.006s-.983-1.515-.983-2.424c0-.91.355-1.782.985-2.424A3.323 3.323 0 0 1 17.013 15c.89 0 1.744.362 2.374 1.005.63.643.982 1.516.982 2.425zm.1 5.965h-6.715v21.462h6.716V24.395zm10.612 0h-6.682v21.462h6.615V34.595c0-6.274 8.008-6.856 8.008 0v11.262h6.632V32.263c0-10.576-11.853-10.182-14.64-4.988l.067-2.88z"/></symbol><symbol viewBox="0 0 44 45" id="logo-cross" xmlns="http://www.w3.org/2000/svg"><path fill-rule="evenodd" clip-rule="evenodd" d="M21.572 22.535v5.37L5.363 44.129 0 38.742l16.193-16.207h5.379Zm6.18 0 16.194 16.207-5.364 5.386-16.208-16.222v-5.371h5.378ZM5.39.117 21.597 16.31v5.378h-5.37L.002 5.48 5.39.117Zm35.636 2.415.565.562-18.594 18.594h-.604v-.523L41.025 2.532Zm1.203 1.197.565.563-17.397 17.396H24.27L42.228 3.73Zm1.203 1.198.555.553-16.223 16.208h-1.094L43.431 4.927Zm-3.608-3.592.565.562-17.995 17.995v-1.127l17.43-17.43ZM38.6.117l.585.582-16.793 16.793V16.31L38.6.117Z"/></symbol><symbol viewBox="0 0 16 16" id="logo-cross-crop-right" xmlns="http://www.w3.org/2000/svg"><path d="m3.05 14.708 9.707-5.605v-1.12h-.001V6.862L3.05 1.258v1.12l9.707 5.605-9.707 5.604v1.12Z" fill="#0F0E2B"/></symbol><symbol viewBox="0 0 19 32" id="logo-cross-half-right" xmlns="http://www.w3.org/2000/svg"><path fill-rule="evenodd" clip-rule="evenodd" d="M11.49 15.073.742 4.325 4.325.742l14.33 14.33H11.49Zm0 1.918L.742 27.74l3.583 3.582 14.33-14.33H11.49Z"/></symbol><symbol fill="none" viewBox="0 0 61 94" id="logo-footer" xmlns="http://www.w3.org/2000/svg"><path fill="#6DA5FF" d="M19.127 0h9.4v72.636h-9.4zM.327 21.364h9.4V94h-9.4z"/></symbol><symbol viewBox="0 0 169 115" id="logo-text" xmlns="http://www.w3.org/2000/svg"><path d="M28.992 89.973c-4.78 0-9.065-.492-13.515-1.97-4.45-1.478-7.91-3.94-10.218-6.896-2.307-2.791-4.12-6.403-4.78-11.657h10.713c.989 5.746 3.79 9.523 6.593 11.329 3.955 2.463 6.922 3.448 12.69 3.448 8.9 0 13.02-5.419 13.02-10.837 0-1.806-.494-3.612-1.648-5.253a10.319 10.319 0 0 0-4.285-3.612c-1.813-.986-4.285-1.807-7.417-2.463l-8.9-1.806c-5.768-1.15-10.383-3.284-13.679-6.24-3.296-2.955-4.78-6.567-4.78-11.328 0-3.448.99-6.567 3.297-9.359 2.143-2.627 5.274-4.76 9.065-6.239 3.955-1.641 8.075-2.134 12.525-2.134 3.79 0 7.581.493 11.372 1.806a24.457 24.457 0 0 1 9.065 5.746c2.472 2.627 4.12 5.583 5.109 9.359H42.836c-.824-4.105-1.978-6.731-5.439-9.03-2.472-1.642-5.604-2.627-10.383-2.627-4.12 0-8.735 1.313-11.372 5.09-.989 1.477-1.648 3.283-1.648 5.582 0 3.94 2.307 6.567 6.098 7.717 1.648.656 3.79 1.149 6.757 1.806l8.735 1.806c6.592 1.313 11.372 3.612 14.668 6.567 3.132 2.955 4.78 7.06 4.78 11.821 0 4.433-1.319 8.21-3.79 11-2.473 2.956-5.604 4.762-9.066 6.24-3.79 1.642-8.075 2.134-13.184 2.134ZM92.279 81.6c3.955 0 7.252-.985 10.218-2.956 2.802-1.97 4.944-4.761 6.428-8.373 1.483-3.612 2.307-7.88 2.307-12.806 0-4.926-.824-9.195-2.307-12.807-1.484-3.612-3.626-6.403-6.428-8.373-2.966-1.97-6.263-2.956-10.218-2.956-3.956 0-7.417.986-10.218 2.956-2.802 1.97-4.945 4.761-6.428 8.373-1.483 3.612-2.307 7.881-2.307 12.807 0 4.925.824 9.194 2.307 12.806 1.483 3.612 3.626 6.403 6.428 8.373 2.801 1.97 6.262 2.956 10.218 2.956Zm18.459-55.495h11.536v88.824h-11.536V75.032a25.99 25.99 0 0 1-5.439 7.881c-2.307 2.299-4.78 4.105-7.746 5.254-2.967 1.314-5.933 1.806-9.065 1.806-5.109 0-9.724-1.313-13.844-4.105-4.12-2.79-7.252-6.567-9.559-11.492-2.307-4.926-3.46-10.672-3.46-16.911 0-6.24 1.153-11.986 3.46-16.911 2.308-4.926 5.604-8.702 9.724-11.493 4.12-2.791 8.57-4.105 13.68-4.105 3.79 0 7.086.657 10.053 2.134 2.966 1.642 5.603 3.613 7.581 6.075 1.978 2.463 3.626 5.254 4.615 8.21v-15.27Zm34.61 62.719h-11.537V0h11.537v88.824Zm23.073-74.047h-11.536V0h11.536v14.777Zm0 74.047h-11.536V26.105h11.536v62.719Z"/></symbol><symbol viewBox="0 0 16 16" id="mails" xmlns="http://www.w3.org/2000/svg"><path d="M11.458 12.787 16 3.17 0 8.257l6.13 1.309.03 3.264 1.839-1.745-1.432-1.384 4.891 3.087v-.001z"/></symbol><symbol viewBox="0 0 16 16" id="map-pin" xmlns="http://www.w3.org/2000/svg"><path d="M8 16c-.1 0-.3 0-.4-.1-.3-.2-6.3-4.3-6.3-9.2 0-1.8.7-3.5 2-4.7C4.5.7 6.2 0 8 0s3.5.7 4.7 2c1.3 1.3 2 2.9 2 4.7 0 5-6 9-6.3 9.2-.1.1-.3.1-.4.1zM8 1.3c-1.4 0-2.8.6-3.8 1.6S2.6 5.2 2.6 6.7c0 3.6 4.1 6.9 5.3 7.8 1.3-.9 5.3-4.2 5.3-7.8 0-1.4-.6-2.8-1.6-3.8-.8-1-2.2-1.6-3.6-1.6z"/><path d="M8 9.3c-1.5 0-2.7-1.2-2.7-2.7S6.5 4 8 4c1.5 0 2.7 1.2 2.7 2.7S9.5 9.3 8 9.3zm0-4c-.7 0-1.3.6-1.3 1.3S7.3 8 8 8s1.3-.6 1.3-1.3S8.7 5.3 8 5.3z"/></symbol><symbol fill="none" viewBox="0 0 24 24" id="music" xmlns="http://www.w3.org/2000/svg"><path d="M9 18V5l12-2v13" stroke="#DCDADA" stroke-linecap="round" stroke-linejoin="round" stroke-width="2"/><path d="M6 21a3 3 0 1 0 0-6 3 3 0 0 0 0 6zM18 19a3 3 0 1 0 0-6 3 3 0 0 0 0 6z" stroke="#DCDADA" stroke-linecap="round" stroke-linejoin="round" stroke-width="2"/></symbol><symbol viewBox="0 0 48 48" id="pagination-arrow" xmlns="http://www.w3.org/2000/svg"><path d="m16.574 34.062 14.561-8.407v-3.362l-14.561-8.406v1.681l14.56 8.406-14.56 8.407v1.681z" clip-rule="evenodd" fill-rule="evenodd"/></symbol><symbol viewBox="0 0 16 17" id="paperclip" xmlns="http://www.w3.org/2000/svg"><path d="M5.3 15.9c-1.3 0-2.5-.5-3.4-1.4S.5 12.4.5 11.1 1 8.6 1.9 7.7L8 1.6c1.3-1.3 3.5-1.3 4.8 0 .6.6 1 1.5 1 2.4s-.4 1.8-1 2.4l-6.1 6.1c-.8.8-2.2.8-2.9 0-.4-.4-.6-.9-.6-1.5s.2-1.1.6-1.5L9.5 4c.3-.3.8-.3 1.1 0s.3.8 0 1.1l-5.7 5.7c-.1.1-.2.3-.2.4s.1.3.2.4c.2.2.6.2.8 0l6.1-6.1c.4-.4.6-.8.6-1.4 0-.5-.2-1-.6-1.4-.7-.7-2-.7-2.7 0L3 8.9c-.6.6-1 1.4-1 2.3s.3 1.7 1 2.3c1.2 1.2 3.4 1.2 4.6 0l6.1-6.1c.3-.3.8-.3 1.1 0s.3.8 0 1.1l-6.1 6.1c-.9.8-2.1 1.3-3.4 1.3z"/></symbol><symbol viewBox="0 0 16 16" id="phone" xmlns="http://www.w3.org/2000/svg"><path d="M13.3 15.4h-.2c-2.2-.2-4.3-1-6.1-2.2-1.6-1.1-3.1-2.5-4.2-4.2C1.6 7.1.9 5 .7 2.9c0-.3 0-.6.1-.9s.2-.5.4-.7c.2-.3.4-.4.7-.5s.6-.2.8-.2h2c.5 0 1 .2 1.4.5s.6.8.7 1.3c.1.6.2 1.1.4 1.7.1.4.2.8.1 1.2-.1.3-.2.7-.5 1l-.5.4c.8 1.2 1.8 2.2 2.9 2.9l.4-.4c.3-.3.6-.5 1-.6s.8-.1 1.2.1c.7.3 1.2.4 1.8.5.5.1 1 .3 1.3.7s.5.9.5 1.4v2c0 .3-.1.6-.2.8-.1.3-.3.5-.5.7s-.5.3-.7.4-.4.2-.7.2zM4.8 2.1H2.6c-.1 0-.1.1-.2.1-.1.1-.2.2-.2.3v.2c.2 1.9.8 3.8 1.9 5.5 1 1.5 2.3 2.8 3.8 3.8 1.6 1.1 3.5 1.7 5.4 1.9h.2c.1 0 .1-.1.2-.1s.1-.1.1-.2v-2.2c0-.1 0-.3-.1-.4s-.2-.2-.4-.2c-.7-.1-1.4-.3-2-.5H11s-.2.1-.3.2l-.8.8c-.2.2-.6.3-.9.1-1.8-1-3.3-2.5-4.3-4.3-.1-.4-.1-.8.2-1l.8-.8c.1-.1.1-.2.2-.3v-.3c-.3-.7-.5-1.4-.6-2.1 0-.1-.1-.3-.2-.4s-.2-.1-.3-.1z"/></symbol><symbol viewBox="0 0 42 42" id="play-circle" xmlns="http://www.w3.org/2000/svg"><path d="M21 6c8.3 0 15 6.7 15 15s-6.7 15-15 15S6 29.3 6 21 12.7 6 21 6zm0 1.8C13.7 7.8 7.8 13.7 7.8 21S13.7 34.2 21 34.2 34.2 28.3 34.2 21 28.3 7.8 21 7.8zm-2 8 7.2 5.2-7.2 5.2V15.8z"/></symbol><symbol viewBox="0 0 64 64" id="play-rounded" xmlns="http://www.w3.org/2000/svg"><path fill-rule="evenodd" clip-rule="evenodd" d="M32 64c17.673 0 32-14.327 32-32C64 14.327 49.673 0 32 0 14.327 0 0 14.327 0 32c0 17.673 14.327 32 32 32Zm13.266-31.615L25.218 19.277v26.217l20.048-13.109Z"/></symbol><symbol fill="none" viewBox="0 0 88 105" id="play-rounded-home" xmlns="http://www.w3.org/2000/svg"><path d="M.833.698v103.467l86.333-51.733L.833.698Z" fill="#FFFAF0" fill-opacity=".7"/></symbol><symbol viewBox="0 0 42 42" id="search" xmlns="http://www.w3.org/2000/svg"><path fill-rule="evenodd" clip-rule="evenodd" d="M27.493 27.02a10.492 10.492 0 0 1-3.763 2.684c-5.385 2.27-11.6-.281-13.883-5.697-2.282-5.416.234-11.646 5.619-13.915 5.385-2.27 11.6.281 13.883 5.697a10.647 10.647 0 0 1-.794 9.82l7.379 5.62-1.063 1.41-7.378-5.619Zm.23-10.546c1.902 4.513-.194 9.705-4.681 11.596-4.488 1.891-9.668-.235-11.57-4.748-1.901-4.513.195-9.704 4.682-11.596 4.488-1.89 9.668.235 11.57 4.748Z"/></symbol><symbol viewBox="0 0 24 24" id="trash" xmlns="http://www.w3.org/2000/svg"><path d="M21 7H3c-.6 0-1-.4-1-1s.4-1 1-1h18c.6 0 1 .4 1 1s-.4 1-1 1z"/><path d="M17 23H7c-1.7 0-3-1.3-3-3V6c0-.6.4-1 1-1s1 .4 1 1v14c0 .6.4 1 1 1h10c.6 0 1-.4 1-1V6c0-.6.4-1 1-1s1 .4 1 1v14c0 1.7-1.3 3-3 3zM16 7c-.6 0-1-.4-1-1V4c0-.6-.4-1-1-1h-4c-.6 0-1 .4-1 1v2c0 .6-.4 1-1 1s-1-.4-1-1V4c0-1.7 1.3-3 3-3h4c1.7 0 3 1.3 3 3v2c0 .6-.4 1-1 1z"/><path d="M10 18c-.6 0-1-.4-1-1v-6c0-.6.4-1 1-1s1 .4 1 1v6c0 .6-.4 1-1 1zM14 18c-.6 0-1-.4-1-1v-6c0-.6.4-1 1-1s1 .4 1 1v6c0 .6-.4 1-1 1z"/></symbol><symbol viewBox="0 0 60 60" id="x-twitter" xmlns="http://www.w3.org/2000/svg"><path d="M39.106 16.664h4.753L33.474 28.526l12.218 16.138h-9.566l-7.491-9.789-8.575 9.789h-4.755l11.108-12.688-11.72-15.311H24.5l6.773 8.947 7.832-8.948zm-1.668 25.158h2.634L23.07 19.358h-2.826l17.195 22.464z"/></symbol><symbol viewBox="0 0 60 60" id="youtube" xmlns="http://www.w3.org/2000/svg"><path d="M26.254 35.143 35.077 30l-8.823-5.143v10.286zM45.906 21.72c.221.806.374 1.886.476 3.257.119 1.372.17 2.554.17 3.583l.102 1.44c0 3.754-.272 6.514-.748 8.28-.425 1.543-1.411 2.537-2.941 2.966-.799.223-2.261.377-4.505.48-2.21.12-4.233.171-6.103.171L29.654 42c-7.123 0-11.56-.274-13.311-.754-1.53-.429-2.516-1.423-2.941-2.966-.221-.806-.374-1.886-.476-3.257a41.592 41.592 0 0 1-.17-3.583L12.654 30c0-3.754.272-6.514.748-8.28.425-1.543 1.411-2.537 2.941-2.966.799-.223 2.261-.377 4.505-.48 2.21-.12 4.233-.171 6.103-.171L29.654 18c7.123 0 11.56.274 13.311.754 1.53.429 2.516 1.423 2.941 2.966z"/></symbol></svg>