<?xml version="1.0" encoding="UTF-8"?>
<svg xmlns="http://www.w3.org/2000/svg" width="90" height="58" viewBox="0 0 90 58" fill="none">
    <g clip-path="url(#clip0_8011_149)">
        <path fill-rule="evenodd" clip-rule="evenodd"
              d="M43.2052 43.5708C45.0651 49.213 48.3881 53.4779 52.677 55.8218C53.969 56.5276 55.3559 57.0603 56.8143 57.4061C63.4969 58.9743 70.6662 56.3216 76.5031 50.1095C80.8866 48.7626 84.5413 46.5729 87.2379 43.7558C87.3047 43.6862 87.2558 43.5708 87.1592 43.5708H86.6596C86.6306 43.5708 86.603 43.5822 86.5826 43.603C83.9988 46.2093 80.5512 48.2466 76.4403 49.5234C78.0413 47.7778 79.4674 45.8265 80.6971 43.7101C80.7329 43.6482 80.6882 43.5708 80.6168 43.5708H80.1832C80.1505 43.5708 80.1199 43.5884 80.1037 43.6165C78.9045 45.6505 77.5204 47.5261 75.9708 49.205C70.6014 50.7961 64.6708 50.9066 58.798 49.5243C54.0036 48.3961 49.6426 46.3641 46.0199 43.5872C46.0062 43.5765 45.9891 43.5708 45.9715 43.5708H45.2982C45.2224 43.5708 45.1885 43.6669 45.2476 43.7143C49.012 46.707 53.5977 48.8905 58.6533 50.083C64.5917 51.4853 70.5916 51.3741 76.0308 49.7821C70.354 55.7855 63.4088 58.3511 56.9594 56.8326C50.9231 55.4116 46.2006 50.621 43.8178 43.5713H43.2052V43.5708ZM39.6247 15.6123H40.0567C40.0927 15.6123 40.1265 15.5964 40.1493 15.5684C42.821 12.325 46.7056 9.81124 51.4869 8.32585C49.5558 10.4315 47.879 12.8362 46.4944 15.4686C46.4602 15.5337 46.5078 15.6119 46.5813 15.6119H47.0092C47.0451 15.6119 47.0784 15.592 47.0952 15.5602C48.4516 13.0146 50.0872 10.6894 51.9677 8.65087C57.3376 7.05957 63.2683 6.9492 69.1406 8.33155C74.6365 9.62512 79.5628 12.1055 83.4605 15.5344L83.665 15.6119H84.2153C84.2837 15.6119 84.3172 15.5272 84.2666 15.4812C80.2321 11.7874 75.0599 9.12251 69.2711 7.75727C63.3388 6.35822 57.3327 6.46615 51.8994 8.06152C57.5826 2.0617 64.5216 -0.507087 70.971 1.0113C72.3817 1.3465 73.7182 1.85929 74.9686 2.54271L74.9592 2.54557C79.3884 4.9661 82.7631 9.50497 84.5019 15.5366C84.5148 15.5813 84.5557 15.6123 84.6026 15.6123H84.9876C85.0573 15.6123 85.1079 15.5455 85.0888 15.4788C82.8189 7.47258 77.7368 2.00469 71.1125 0.443532C64.4328 -1.13065 57.2605 1.52815 51.4236 7.74016C46.3775 9.28747 42.2956 11.9573 39.5298 15.416C39.4666 15.4949 39.5219 15.6123 39.6234 15.6123H39.6247Z"
              fill="black"></path>
        <path d="M19.8221 38.8899H16.9394C16.418 38.8899 15.9457 38.5806 15.7667 38.0924L9.90331 23.5904L4.03992 38.0924C3.84427 38.5806 3.3723 38.8899 2.86731 38.8899H0L8.04599 18.9839H11.7757L19.8217 38.8899H19.8221Z"
              fill="black"></path>
        <path d="M74.312 18.9839V38.8899H70.5823V26.2268L65.5007 34.1208C65.3865 34.3001 65.1912 34.4137 64.9793 34.4137H63.823C63.611 34.4137 63.4159 34.2997 63.3018 34.1208L58.2201 26.2268V38.8899H54.4902V18.9839H57.5035C57.9432 18.9839 58.3505 19.2278 58.5788 19.6026L64.4099 29.938L70.2411 19.6026C70.4527 19.2119 70.8598 18.9839 71.3159 18.9839H74.3292H74.3128H74.312Z"
              fill="black"></path>
        <path d="M89.1506 18.9839H85.4209V38.8899H89.1506V18.9839Z" fill="black"></path>
        <path d="M42.0955 29.336C41.7858 28.9454 41.4274 28.5874 41.0203 28.2779C41.2812 27.9035 41.509 27.4966 41.6721 27.0735C41.9488 26.4063 42.0955 25.6577 42.0955 24.8925C42.0955 24.1272 41.9488 23.3786 41.6721 22.7115C41.2648 21.6699 40.5647 20.791 39.6851 20.1397C39.2779 19.8469 38.8381 19.5863 38.3494 19.407C37.6651 19.1468 36.9323 18.9839 36.1668 18.9839H29.4072V38.9061H37.4209C37.7304 38.9061 38.0397 38.8736 38.3494 38.841C38.8055 38.7758 39.2615 38.6459 39.6851 38.4666C40.4178 38.1739 41.0695 37.7344 41.6068 37.1809C42.1444 36.6273 41.9324 36.8391 42.0791 36.6437C42.8609 35.6344 43.3332 34.3812 43.3332 32.998C43.3332 31.6148 42.8609 30.3611 42.0791 29.3523L42.0955 29.336ZM33.1532 22.7115H36.1827C37.3879 22.7115 38.3653 23.6881 38.3653 24.8925C38.3653 26.0968 38.1211 26.048 37.7299 26.4386C37.339 26.8292 36.7851 27.073 36.1827 27.073H33.1532V22.711V22.7115ZM39.0496 34.5282C38.8544 34.7233 38.6261 34.8862 38.3658 35.0002C38.1049 35.1142 37.8118 35.1795 37.5187 35.1795H33.1536V30.8173H37.5187C37.8282 30.8173 38.1049 30.8825 38.3658 30.9965C39.1475 31.322 39.7013 32.1036 39.7013 32.9984C39.7013 33.8931 39.4573 34.1543 39.0664 34.5444L39.05 34.5282H39.0496Z"
              fill="black"></path>
    </g>
    <defs>
        <clipPath id="clip0_8011_149">
            <rect width="89.1596" height="58" fill="black"></rect>
        </clipPath>
    </defs>
</svg>