<svg width="113" height="44" viewBox="0 0 113 44" fill="none" xmlns="http://www.w3.org/2000/svg">
<path d="M44.7646 20.2031H55.6792V15.8675H49.7061V0.628639H44.7646V20.2031Z" fill="#231F20"></path>
<path d="M56.9756 20.2031H61.3158V12.1591C61.3158 11.4541 61.3158 9.28623 63.7468 9.28623C66.0742 9.28623 66.0742 11.6103 66.0742 12.3162V20.2031H70.4136V12.1065C70.4136 9.52098 70.2831 8.24197 69.0546 6.80511C68.1389 5.70824 66.4923 5.21202 65.1066 5.21202C63.5637 5.21202 62.1002 5.73415 61.3677 7.03987L61.1886 7.24386V0.628639H56.9756V20.2031Z" fill="#231F20"></path>
<path fill-rule="evenodd" clip-rule="evenodd" d="M71.1299 12.8198C71.1299 16.4285 73.7068 20.6484 79.0729 20.6484C84.439 20.6484 87.0159 16.4285 87.0159 12.8198C87.0159 9.21103 84.439 4.99111 79.0729 4.99111C73.7068 4.99111 71.1299 9.21103 71.1299 12.8198ZM75.5398 12.8198C75.5398 10.6706 77.1605 9.10418 79.0729 9.10418C80.9853 9.10418 82.606 10.6706 82.606 12.8198C82.606 14.969 80.9853 16.5354 79.0729 16.5354C77.1605 16.5354 75.5398 14.969 75.5398 12.8198Z" fill="#231F20"></path>
<path fill-rule="evenodd" clip-rule="evenodd" d="M92.1176 5.4605H87.7773V20.2031H92.1176V5.4605ZM92.1176 0.629452H87.7773V3.92007H92.1176V0.629452Z" fill="#231F20"></path>
<path d="M103.952 9.5985C103.586 5.78576 100.585 5.03293 98.6763 5.03293C95.6691 5.03293 93.2024 7.11982 93.2024 9.99273C93.2024 12.3451 94.7664 13.5351 96.3239 14.1017C98.0864 14.7437 99.9688 14.6732 99.9688 16.1538C99.9688 17.0775 99.1098 17.3616 98.3773 17.3616C98.1941 17.3616 96.9195 17.2013 96.9195 15.8074L92.918 15.8252C93.3102 19.6379 96.1456 20.6562 98.3416 20.6562C101.558 20.6562 104.326 18.6851 104.326 15.6293C104.326 12.6544 102.075 11.6514 99.6171 10.9722C98.4664 10.633 97.3951 10.6201 97.3951 9.40503C97.3951 9.01323 97.7087 8.19159 98.6236 8.19159C99.9048 8.19159 99.9566 9.28522 99.9834 9.5985H103.952Z" fill="#231F20"></path>
<path d="M111.111 0.628639H106.77V5.46054H104.875V8.75115H106.77V20.2031H111.111V8.75115H113V5.46054H111.111V0.628639Z" fill="#231F20"></path>
<path d="M11.0371 26.9299H22.6105L26.1128 22.4728V30.1056L26.125 30.1193L23.5586 33.2812H11.0371V26.9299Z" fill="#00ADEF"></path>
<path d="M18.0928 22.6133L26.0982 12.6678V20.3014L26.1112 20.3151L24.2838 22.6133H18.0928Z" fill="#00ADEF"></path>
<path d="M43.6258 0.539547L35.1585 11.4419L35.1772 11.4767C37.7257 15.1186 39.4615 19.0415 39.4615 23.7544C39.4615 34.6397 30.6279 43.4648 19.7311 43.4648C8.83359 43.4648 0 34.6397 0 23.7544C0 12.869 8.54754 3.96859 19.4443 3.96859L22.3315 0.529835H30.1619L22.1565 10.5012L22.099 10.4875C21.2886 10.3369 20.4532 10.2584 19.5982 10.2584C12.1058 10.2584 6.03141 16.3256 6.03141 23.811C6.03141 31.2956 12.1058 37.3637 19.5982 37.3637C27.0915 37.3637 33.1651 31.2956 33.1651 23.811C33.1651 18.8423 30.4885 14.4985 26.4975 12.1389L26.5413 12.138L35.8846 0.529835L43.6258 0.539547Z" fill="#00ADEF"></path>
</svg>