<?xml version="1.0" encoding="UTF-8"?>
<svg xmlns="http://www.w3.org/2000/svg" id="Calque_2" data-name="Calque 2" viewBox="0 0 261.67 253.15" width="640" height="619">
  <defs>
    <style>
      .cls-1 {
        fill: #ff2e2e;
      }

      .cls-2 {
        fill: none;
      }

      .cls-3 {
        fill: #001233;
      }
    </style>
  </defs>
  <g>
    <line class="cls-2" x1="130.05" y1="168.58" x2="130.05" y2="168.58"/>
    <g>
      <path class="cls-1" d="M114.11,69.92l10.89-19.62c.47-.85.47-1.88,0-2.73l-10.68-19.32c-.5-.9-1.44-1.45-2.46-1.45h-21.76c-2.14,0-3.5,2.3-2.46,4.17l21.55,38.93c1.07,1.93,3.85,1.93,4.92,0Z"/>
      <path class="cls-1" d="M241.68,26.81h-20.96c-1.02,0-1.96.55-2.46,1.44l-49.97,89.76c-1.07,1.93-3.85,1.93-4.92,0l-18.83-33.96c-.47-.85-.47-1.88,0-2.73l27.9-50.34c1.04-1.87-.32-4.18-2.46-4.18h-20.96c-1.02,0-1.96.55-2.46,1.44l-49.02,88.05c-1.88,3.38-4.95,3.37-6.83,0L41.87,28.25c-.5-.89-1.44-1.45-2.46-1.45h-21c-2.14,0-3.5,2.3-2.46,4.18l74.82,135.06c1.87,3.38,4.94,3.38,6.81,0l32.24-55.55c1.07-1.93,32.85,55.31,32.85,55.31,1.59,2.77,3.9,4.4,6.4,0L244.14,30.98c1.04-1.87-.32-4.18-2.46-4.18Z"/>
    </g>
  </g>
  <g>
    <path class="cls-3" d="M72.29,189.53l-12.03,36.29h-7.15l-8.97-26.86-9.12,26.86h-7.21l-12.03-36.29h7l9.02,27.58,9.38-27.58h6.22l9.18,27.74,9.28-27.74h6.43Z"/>
    <path class="cls-3" d="M77.79,189.53h6.74v36.29h-6.74v-36.29Z"/>
    <path class="cls-3" d="M124.55,225.82l-.05-24.06-11.92,19.91h-3.01l-11.92-19.6v23.75h-6.43v-36.29h5.55l14.41,24.06,14.15-24.06h5.55l.05,36.29h-6.38Z"/>
    <path class="cls-3" d="M135.02,207.68c0-10.73,8.3-18.66,19.55-18.66s19.55,7.88,19.55,18.66-8.3,18.66-19.55,18.66-19.55-7.93-19.55-18.66ZM167.32,207.68c0-7.41-5.44-12.75-12.75-12.75s-12.75,5.34-12.75,12.75,5.44,12.75,12.75,12.75,12.75-5.34,12.75-12.75Z"/>
    <path class="cls-3" d="M213.31,189.53l-15.81,36.29h-6.64l-15.86-36.29h7.31l12.08,28,12.18-28h6.74Z"/>
    <path class="cls-3" d="M235.39,217.42h-18.15l-3.58,8.4h-6.95l16.33-36.29h6.64l16.38,36.29h-7.05l-3.63-8.4ZM233.16,212.14l-6.84-15.86-6.79,15.86h13.64Z"/>
  </g>
</svg>
